<?xml version="1.0" encoding="UTF-8" standalone="no"?>
<!-- Created with Inkscape (http://www.inkscape.org/) -->

<svg
   width="58.135704mm"
   height="58.194012mm"
   viewBox="0 0 58.135704 58.194012"
   version="1.1"
   id="svg5518"
   inkscape:version="1.1.1 (3bf5ae0d25, 2021-09-20, custom)"
   sodipodi:docname="anchor.svg"
   xmlns:inkscape="http://www.inkscape.org/namespaces/inkscape"
   xmlns:sodipodi="http://sodipodi.sourceforge.net/DTD/sodipodi-0.dtd"
   xmlns="http://www.w3.org/2000/svg"
   xmlns:svg="http://www.w3.org/2000/svg">
  <sodipodi:namedview
     id="namedview5520"
     pagecolor="#ffffff"
     bordercolor="#666666"
     borderopacity="1.0"
     inkscape:pageshadow="2"
     inkscape:pageopacity="0.0"
     inkscape:pagecheckerboard="0"
     inkscape:document-units="mm"
     showgrid="false"
     inkscape:zoom="1.092294"
     inkscape:cx="134.57916"
     inkscape:cy="159.75553"
     inkscape:window-width="1920"
     inkscape:window-height="1056"
     inkscape:window-x="0"
     inkscape:window-y="0"
     inkscape:window-maximized="1"
     inkscape:current-layer="layer1" />
  <defs
     id="defs5515" />
  <g
     inkscape:label="Layer 1"
     inkscape:groupmode="layer"
     id="layer1"
     transform="translate(-51.529165,-94.21643)">
    <path
       id="path185-3"
       style="opacity:1;fill:#ffffff;stroke:#000000;stroke-width:0.564998;stroke-linecap:round;stroke-opacity:0.97098"
       d="m 80.05799,94.50676 c -0.528811,-0.02191 -1.018957,0.188786 -1.40157,0.567355 0.350284,0.134123 0.56615,0.430467 0.640318,0.870154 0.01701,0.118445 0.0214,0.245716 0.01241,0.38237 -0.04282,0.648109 0.294559,1.421597 1.014484,1.840546 0.06799,0.03954 0.13573,0.07496 0.202588,0.105406 0.02373,0.01084 0.04721,0.02079 0.07081,0.03048 0.618927,0.244099 1.193786,0.102603 1.713199,-0.321913 -0.28589,-0.183932 -0.448732,-0.499014 -0.472356,-0.944042 -0.0036,-0.119459 0.0053,-0.24708 0.02894,-0.381855 0.111066,-0.631817 -0.119429,-1.462224 -0.952984,-1.906689 -0.0777,-0.0414 -0.155598,-0.0781 -0.233594,-0.10903 -0.02768,-0.011 -0.05554,-0.0213 -0.08321,-0.03101 -0.182406,-0.06131 -0.362755,-0.0945 -0.539026,-0.101793 z m 3.472915,0.20462 c -0.350657,0.02148 -0.690883,0.147119 -0.993296,0.362735 0.324935,0.189549 0.491279,0.51593 0.496131,0.960577 -0.0016,0.119314 -0.01749,0.245582 -0.04754,0.378754 -0.142727,0.632003 0.07039,1.44629 0.715256,1.95991 0.0609,0.04847 0.121771,0.09249 0.182947,0.131761 0.588342,0.378405 1.201184,0.342223 1.798991,-0.0093 -0.253558,-0.223624 -0.367381,-0.559003 -0.324035,-0.999333 0.01437,-0.117834 0.04238,-0.241704 0.08579,-0.370486 0.203842,-0.604333 0.10044,-1.453607 -0.646002,-2.011063 -0.06956,-0.05191 -0.139996,-0.09884 -0.211373,-0.140547 -0.344923,-0.20185 -0.706207,-0.284501 -1.056862,-0.263008 z m -7.329817,0.194287 c -0.544838,0.04019 -1.015093,0.32185 -1.346271,0.765774 0.363509,0.08112 0.619571,0.339938 0.758152,0.760608 0.03442,0.113758 0.05763,0.238596 0.06925,0.374103 0.05499,0.642977 0.502065,1.35199 1.273402,1.64936 0.07278,0.02804 0.144202,0.05207 0.214471,0.07131 0.676378,0.185672 1.249331,-0.0301 1.714237,-0.545654 -0.309859,-0.139121 -0.520713,-0.4264 -0.61293,-0.860852 -0.02204,-0.11712 -0.0329,-0.243921 -0.03049,-0.380304 0.01148,-0.641022 -0.345974,-1.421307 -1.228441,-1.722735 -0.08212,-0.02802 -0.163289,-0.05051 -0.24393,-0.0682 -0.195915,-0.04314 -0.385836,-0.0568 -0.567452,-0.0434 z m 10.905576,0.548752 c -0.261097,0.01696 -0.520945,0.0909 -0.767452,0.217022 0.290499,0.233374 0.405523,0.57842 0.344706,1.016901 -0.01918,0.117231 -0.05311,0.239126 -0.102327,0.365834 -0.233486,0.60078 -0.14509,1.435157 0.419129,2.038966 0.05328,0.05698 0.107333,0.109655 0.162275,0.157598 0.528577,0.461979 1.143387,0.516875 1.786587,0.254226 -0.220541,-0.25817 -0.286263,-0.606846 -0.18088,-1.036535 0.03095,-0.114603 0.07622,-0.233169 0.137469,-0.354467 0.287828,-0.569642 0.305445,-1.424445 -0.349358,-2.079788 -0.06103,-0.06104 -0.123887,-0.117245 -0.188117,-0.16845 -0.387924,-0.309701 -0.826871,-0.439547 -1.262032,-0.411307 z m -14.415183,0.361702 c -0.657832,0.04431 -1.185279,0.416353 -1.494077,0.982796 0.370726,0.03008 0.66,0.250704 0.856859,0.647448 0.05021,0.107716 0.09122,0.22769 0.121966,0.360152 0.145765,0.628606 0.688858,1.267963 1.496662,1.447842 0.07618,0.01693 0.150329,0.02969 0.222739,0.03823 0.697211,0.08277 1.233128,-0.218808 1.615011,-0.796778 -0.326316,-0.08956 -0.576348,-0.340699 -0.731276,-0.754924 -0.03897,-0.112068 -0.06858,-0.235313 -0.08631,-0.369971 -0.08315,-0.632711 -0.549888,-1.34794 -1.461519,-1.520181 -0.08489,-0.01601 -0.168704,-0.02698 -0.250651,-0.03307 -0.09904,-0.0074 -0.195433,-0.0079 -0.289409,-0.0016 z m 17.832283,0.873252 c -0.175688,0.01227 -0.352835,0.04901 -0.52714,0.109544 0.254112,0.271197 0.320027,0.628957 0.198452,1.055138 -0.03539,0.113533 -0.08598,0.230031 -0.152456,0.348784 -0.315216,0.562765 -0.345415,1.40254 0.133853,2.081851 0.04524,0.0641 0.09239,0.12397 0.140569,0.1793 0.463636,0.53332 1.069434,0.67251 1.745244,0.49812 -0.185561,-0.28675 -0.203859,-0.64218 -0.04134,-1.055139 0.04617,-0.109757 0.106775,-0.22147 0.183984,-0.333799 0.362924,-0.527748 0.494638,-1.374205 -0.06409,-2.112339 -0.05209,-0.06876 -0.106754,-0.133301 -0.16331,-0.192737 -0.409835,-0.431284 -0.926701,-0.615582 -1.453766,-0.578723 z m -20.90726,0.509483 c -0.08626,-0.0044 -0.170732,-0.0039 -0.252717,0.0011 -0.792729,0.04766 -1.371337,0.521849 -1.634646,1.211702 0.371937,-0.019 0.688987,0.161726 0.937996,0.529635 0.06439,0.100314 0.121125,0.214025 0.169511,0.341551 0.229424,0.605081 0.854999,1.167886 1.684262,1.234436 0.07817,0.006 0.154107,0.009 0.227392,0.007 0.705826,-0.0151 1.197905,-0.39171 1.496145,-1.019484 -0.338049,-0.04206 -0.619939,-0.255162 -0.831537,-0.644347 -0.05429,-0.105658 -0.100572,-0.22395 -0.136953,-0.354983 -0.170777,-0.615667 -0.733562,-1.259141 -1.659453,-1.30678 z m 24.385859,1.17295 c -0.175972,-0.01084 -0.356372,0.0026 -0.537473,0.03979 0.215763,0.303013 0.233238,0.667539 0.05581,1.075287 -0.05025,0.108231 -0.116086,0.217259 -0.197933,0.326567 -0.388001,0.5179 -0.528961,1.34954 -0.13902,2.0896 0.0368,0.0698 0.07539,0.13542 0.11628,0.19687 0.393533,0.59238 0.980851,0.81024 1.676509,0.72341 -0.148614,-0.30935 -0.121731,-0.66605 0.09303,-1.05617 0.06004,-0.10331 0.135093,-0.20661 0.22636,-0.30848 0.429072,-0.4787 0.668096,-1.30389 0.209822,-2.109759 -0.04273,-0.0751 -0.08808,-0.145978 -0.136438,-0.212372 -0.350366,-0.481704 -0.839026,-0.732368 -1.366944,-0.76474 z m -27.618977,0.637627 c -0.05561,-2.65e-4 -0.112716,0.0015 -0.170545,0.0062 -0.08623,0.0068 -0.169385,0.01804 -0.250131,0.03359 -0.780848,0.149726 -1.293688,0.6951 -1.466688,1.414777 0.367143,-0.0661 0.705501,0.073 1.000531,0.40717 0.07697,0.0915 0.147871,0.19761 0.212405,0.3183 0.305947,0.57249 1.001027,1.0527 1.836718,1.01018 0.07876,-0.004 0.154507,-0.0115 0.227392,-0.0227 0.70218,-0.10803 1.144752,-0.54984 1.358676,-1.2148 -0.342444,0.004 -0.651649,-0.17009 -0.913709,-0.52912 -0.06801,-0.0979 -0.129404,-0.20984 -0.182947,-0.33535 -0.235729,-0.552941 -0.817494,-1.083705 -1.651702,-1.088207 z m 30.588527,1.451457 c -0.09,-0.005 -0.181539,-0.004 -0.273907,0.003 0.175464,0.32883 0.14671,0.69365 -0.08166,1.07684 -0.06375,0.10131 -0.142923,0.20132 -0.238247,0.2997 -0.451877,0.46611 -0.698782,1.2757 -0.402588,2.0617 0.02795,0.0741 0.05839,0.14399 0.09148,0.2103 0.318312,0.63911 0.877096,0.92905 1.579865,0.92905 -0.109693,-0.32595 -0.03883,-0.67692 0.223259,-1.03807 0.07255,-0.0952 0.160144,-0.18859 0.263571,-0.27852 0.486238,-0.42253 0.826358,-1.21343 0.472875,-2.07203 -0.03297,-0.08 -0.06941,-0.15631 -0.109045,-0.22839 -0.334948,-0.61005 -0.895626,-0.93044 -1.525604,-0.96368 z m -16.374897,0.27334 c -12.474608,1.5e-4 -22.587243,10.11111 -22.587389,22.58365 -1.38e-4,12.47274 10.11258,22.58401 22.587389,22.58417 12.475011,1.3e-4 22.588034,-10.11122 22.587904,-22.58417 -1.5e-4,-12.47274 -10.113095,-22.58378 -22.587904,-22.58365 z m -17.198684,0.48159 c -0.107222,0.004 -0.218056,0.0168 -0.331788,0.0403 -0.0848,0.0176 -0.166208,0.039 -0.244449,0.0646 -0.756656,0.24673 -1.197103,0.85311 -1.279085,1.58994 0.356341,-0.11133 0.710059,-0.0155 1.044976,0.28006 0.08792,0.0815 0.171973,0.17792 0.251166,0.28988 0.37535,0.53092 1.125902,0.92287 1.952998,0.77559 0.07795,-0.0139 0.153079,-0.0307 0.224291,-0.0511 0.686237,-0.19591 1.072148,-0.69218 1.201052,-1.38171 -0.339653,0.0476 -0.670996,-0.0864 -0.977274,-0.41027 -0.08012,-0.0888 -0.155593,-0.19194 -0.22481,-0.31003 -0.284512,-0.48568 -0.866515,-0.91383 -1.617077,-0.8872 z m 36.252688,1.69483 c 0.133206,0.34863 0.05888,0.70728 -0.215506,1.05979 -0.07591,0.0928 -0.167008,0.18224 -0.273907,0.26818 -0.506856,0.40732 -0.851778,1.1811 -0.653755,1.99814 0.01868,0.077 0.04035,0.15074 0.06511,0.22064 0.237997,0.67353 0.757615,1.02898 1.454798,1.11507 -0.06882,-0.33654 0.0443,-0.67583 0.34884,-1.00191 0.0837,-0.0855 0.18244,-0.16741 0.29613,-0.24389 0.53442,-0.35932 0.96892,-1.10227 0.72456,-1.99866 -0.0228,-0.0836 -0.0492,-0.16377 -0.0796,-0.24027 -0.29338,-0.73983 -0.92591,-1.14089 -1.666689,-1.17709 z m -38.79329,0.85982 c -0.201857,-0.002 -0.41476,0.0295 -0.634634,0.10438 -0.08197,0.0279 -0.160688,0.0595 -0.235145,0.0945 -0.720173,0.33867 -1.081081,0.99486 -1.071333,1.73618 0.339536,-0.15456 0.701624,-0.10259 1.070298,0.14933 0.09726,0.07 0.192395,0.15496 0.284758,0.25628 0.43767,0.4804 1.231135,0.77726 2.034655,0.52964 0.07575,-0.0234 0.147754,-0.0495 0.216022,-0.0785 0.657977,-0.27875 0.981666,-0.81925 1.02482,-1.5207 -0.332057,0.0894 -0.677793,-0.003 -1.022235,-0.28678 -0.09061,-0.0783 -0.178618,-0.17128 -0.26202,-0.28006 -0.293911,-0.38353 -0.799615,-0.69746 -1.405186,-0.70429 z m 19.921201,0.0367 c 0.66917,0.006 1.314772,0.14723 1.731287,0.42009 1.814716,1.18885 1.931181,4.38561 0.201037,5.51906 -0.565851,0.37069 -0.620679,0.59404 -0.620679,2.52881 0,1.90067 0.06799,2.19015 0.649619,2.77167 0.593208,0.59311 0.85562,0.64951 3.027432,0.64951 1.307809,0 2.451174,-0.11905 2.541121,-0.26455 0.08991,-0.14551 0.456634,-0.26456 0.814995,-0.26456 0.810033,0 1.426855,1.11884 0.995882,1.80644 -0.335146,0.53471 -1.365121,0.72936 -1.761783,0.33276 -0.495146,-0.49506 -3.648908,-0.34884 -4.568536,0.21186 -1.558202,0.95003 -1.69873,1.66223 -1.69873,8.61057 0,6.7682 0.146328,7.65051 1.406736,8.47623 1.422458,0.93189 6.085664,0.91639 7.928791,-0.0264 1.112952,-0.56923 2.836214,-1.92872 2.836214,-2.23738 0,-0.13328 -0.47628,-0.24234 -1.058412,-0.24234 -0.582125,0 -1.058412,-0.10774 -1.058412,-0.23924 0,-0.18988 2.584074,-1.96118 4.4321,-3.03831 0.256701,-0.14961 0.328646,0.47704 0.320935,2.79906 l -0.0098,2.9918 -0.885801,-1.03446 -0.8858,-1.03499 -0.197419,0.89753 c -0.129111,0.58773 -0.712322,1.40182 -1.689946,2.35778 -1.247093,1.21948 -2.415507,1.91869 -7.092084,4.24535 l -5.598525,2.78511 -1.274953,-0.75596 c -1.150177,-0.68238 -3.033272,-1.60601 -6.429546,-3.15301 -3.3542,-1.52785 -6.139915,-3.91401 -6.503964,-5.57124 l -0.176747,-0.80556 -0.874947,1.03499 -0.874431,1.03446 -0.08734,-2.97991 c -0.06032,-2.06 0.0011,-2.94565 0.198971,-2.86933 0.870594,0.3359 4.569835,2.92041 4.452256,3.11064 -0.07656,0.12383 -0.55559,0.22529 -1.064615,0.22529 -0.887193,0 -0.909342,0.0232 -0.53644,0.55546 0.530066,0.75665 2.067416,1.7703 3.418134,2.25393 1.537283,0.55043 5.074844,0.5246 6.504997,-0.0475 1.837849,-0.73523 1.889433,-0.97654 1.889433,-8.83741 v -6.89559 l -0.896137,-0.97763 c -0.847396,-0.92452 -1.000602,-0.98376 -2.803657,-1.08563 -1.193476,-0.0674 -2.132063,0.0125 -2.508558,0.21393 -1.258236,0.67326 -2.348065,-0.19828 -1.787106,-1.42924 0.318862,-0.69971 1.44001,-0.96315 1.777286,-0.41751 0.09034,0.14614 1.281549,0.26456 2.661533,0.26456 3.342009,0 3.556639,-0.199 3.556639,-3.30079 0,-2.06093 -0.05025,-2.27552 -0.620683,-2.64921 -1.796226,-1.17675 -1.585062,-4.55459 0.347292,-5.55368 0.510435,-0.26391 1.203206,-0.39193 1.872379,-0.38547 z m -0.143672,0.95024 c -0.609664,0 -1.219127,0.24761 -1.644469,0.74201 -1.331506,1.54772 -0.34858,3.84747 1.644469,3.84747 0.656014,0 1.151092,-0.20065 1.599504,-0.64899 0.851951,-0.8518 0.871915,-2.23785 0.04547,-3.19848 -0.425342,-0.4944 -1.035318,-0.74201 -1.644982,-0.74201 z m 21.642671,0.94818 c 0.089,0.36243 -0.0292,0.70896 -0.34471,1.02465 -0.0867,0.0826 -0.18782,0.16048 -0.3044,0.23252 -0.55291,0.34148 -0.99003,1.06581 -0.89458,1.89893 0.009,0.0785 0.0213,0.15412 0.0372,0.22633 0.15262,0.69563 0.62289,1.11048 1.30182,1.28198 -0.0261,-0.34235 0.12864,-0.66272 0.47081,-0.94766 0.0935,-0.0743 0.20094,-0.14307 0.323,-0.20463 0.57364,-0.28912 1.09678,-0.96984 0.96591,-1.88912 -0.0122,-0.0857 -0.0285,-0.16837 -0.0491,-0.24801 -0.19889,-0.77017 -0.77601,-1.24744 -1.50596,-1.37499 z m -43.786125,0.92698 c -0.245757,0.007 -0.504166,0.0663 -0.764867,0.19327 -0.07775,0.0379 -0.15127,0.0789 -0.220675,0.12296 -0.671386,0.42554 -0.947677,1.12191 -0.845489,1.85502 0.316721,-0.19581 0.682263,-0.19005 1.078566,0.0135 0.104987,0.0571 0.209659,0.12976 0.313701,0.21857 0.492958,0.42098 1.315112,0.61586 2.080129,0.2723 0.07214,-0.0324 0.140602,-0.0673 0.204655,-0.10434 0.617387,-0.3565 0.871766,-0.93059 0.828435,-1.63127 -0.318455,0.12937 -0.672639,0.0804 -1.049108,-0.15863 -0.09949,-0.0665 -0.198479,-0.14788 -0.294578,-0.24545 -0.310462,-0.31536 -0.790099,-0.55136 -1.330769,-0.53583 z m 46.041455,2.17125 c 0.0428,0.37024 -0.11704,0.6987 -0.46874,0.97143 -0.0961,0.0709 -0.20639,0.13506 -0.33076,0.1917 -0.59001,0.26854 -1.11257,0.93037 -1.12405,1.76459 -0.001,0.0786 0.002,0.15464 0.008,0.22787 0.0622,0.70542 0.47238,1.17312 1.12043,1.42924 0.0189,-0.34093 0.21281,-0.63673 0.5876,-0.87428 0.10196,-0.0613 0.21721,-0.11607 0.34574,-0.16122 0.60394,-0.21193 1.20886,-0.81714 1.19588,-1.74443 -0.001,-0.0864 -0.007,-0.17065 -0.017,-0.25216 -0.0994,-0.78819 -0.61087,-1.33453 -1.31733,-1.55274 z m -47.889024,0.95025 c -0.32978,-0.003 -0.681025,0.0868 -1.019653,0.30951 -0.07212,0.0475 -0.139502,0.0979 -0.202586,0.15036 -0.610299,0.50736 -0.794825,1.23317 -0.599492,1.94544 0.287903,-0.23514 0.649915,-0.27616 1.067715,-0.12607 0.111102,0.043 0.223757,0.10127 0.337989,0.17568 0.541285,0.35266 1.378811,0.43869 2.090466,0.003 0.06712,-0.0411 0.130069,-0.0835 0.188634,-0.12815 0.564478,-0.42916 0.743995,-1.02726 0.613445,-1.71447 -0.298848,0.16731 -0.655523,0.16291 -1.057894,-0.0264 -0.106752,-0.0533 -0.214665,-0.12119 -0.321969,-0.20565 -0.283612,-0.22335 -0.672655,-0.3803 -1.096655,-0.38392 z m 49.727284,2.40531 c -0.005,0.37202 -0.20563,0.67595 -0.58863,0.89961 -0.10421,0.0575 -0.2217,0.10697 -0.35195,0.14675 -0.61808,0.18845 -1.21994,0.77431 -1.34265,1.59459 -0.0115,0.0773 -0.0188,0.15229 -0.0222,0.22529 -0.0332,0.70293 0.30709,1.21782 0.91164,1.5579 0.0655,-0.33224 0.29795,-0.5999 0.70026,-0.78386 0.10906,-0.0468 0.23021,-0.0849 0.36332,-0.11213 0.62539,-0.12782 1.30561,-0.64415 1.41501,-1.56462 0.0102,-0.0857 0.0155,-0.17005 0.016,-0.25216 0.005,-0.79393 -0.43049,-1.40323 -1.1008,-1.71137 z m -51.303533,0.93113 c -0.369153,0.0163 -0.757105,0.14955 -1.106475,0.45316 -0.06509,0.0566 -0.125392,0.11524 -0.180882,0.17568 -0.536911,0.58411 -0.623561,1.3292 -0.334371,2.00797 0.253077,-0.2725 0.605608,-0.36256 1.038774,-0.27076 0.115604,0.0275 0.234692,0.0701 0.357626,0.12815 0.582726,0.27543 1.421638,0.24679 2.065145,-0.27542 0.06071,-0.0493 0.117188,-0.0997 0.168995,-0.1514 0.499266,-0.49666 0.59729,-1.10825 0.378816,-1.76924 -0.273253,0.20327 -0.626438,0.24512 -1.048593,0.11059 -0.112401,-0.0387 -0.227686,-0.0918 -0.344707,-0.16123 -0.274842,-0.16322 -0.625177,-0.26381 -0.994328,-0.2475 z m 52.679783,2.63681 c -0.0554,0.36781 -0.29553,0.64124 -0.70492,0.8097 -0.11093,0.0425 -0.2332,0.0752 -0.36744,0.0967 -0.63705,0.10128 -1.31227,0.59763 -1.55041,1.38893 -0.0225,0.0747 -0.0405,0.1476 -0.0543,0.21909 -0.13362,0.6882 0.12599,1.24354 0.67442,1.66692 0.11413,-0.31878 0.38326,-0.54999 0.80828,-0.67431 0.11479,-0.0307 0.24046,-0.051 0.37624,-0.0589 0.63806,-0.0367 1.38646,-0.45037 1.62276,-1.34915 0.022,-0.0837 0.0393,-0.16659 0.0512,-0.24801 0.11494,-0.78738 -0.23435,-1.45352 -0.85583,-1.85089 z m -51.531447,0.8562 c -0.241681,0.23725 -0.584326,0.32661 -1.020169,0.25164 -0.116442,-0.0228 -0.238064,-0.0596 -0.363312,-0.11213 -0.587987,-0.2469 -1.441771,-0.20451 -2.050157,0.49657 -0.05666,0.0653 -0.108422,0.1321 -0.155042,0.19996 -0.451222,0.65578 -0.433369,1.41003 -0.04961,2.04259 0.212246,-0.30791 0.548824,-0.44816 0.991227,-0.41957 0.118495,0.011 0.242985,0.035 0.373133,0.0749 0.61734,0.1892 1.443521,0.0396 2.004162,-0.5653 0.05291,-0.057 0.101443,-0.11446 0.145221,-0.17258 0.421786,-0.55902 0.431627,-1.1741 0.12455,-1.79611 z m 52.399677,2.87863 c -0.1074,0.35759 -0.38517,0.59407 -0.81603,0.70119 -0.11629,0.026 -0.24248,0.0399 -0.37882,0.0414 -0.64681,0.007 -1.38908,0.4013 -1.74679,1.14866 -0.0337,0.0706 -0.0631,0.14005 -0.0879,0.20875 -0.23905,0.66129 -0.0699,1.24969 0.40982,1.75581 0.16464,-0.29935 0.46887,-0.48812 0.91164,-0.54669 0.11916,-0.013 0.24743,-0.0135 0.38398,-5.3e-4 0.64203,0.0615 1.45185,-0.23589 1.81967,-1.09802 0.0342,-0.0802 0.0631,-0.16025 0.0868,-0.23975 h 5.3e-4 c 0.23089,-0.77255 -0.0234,-1.48524 -0.58296,-1.97077 z m -53.16713,0.44593 c -0.205035,0.27046 -0.530544,0.40835 -0.974173,0.39787 -0.118867,-0.005 -0.244766,-0.0241 -0.376749,-0.0579 -0.619077,-0.15852 -1.460924,0.008 -1.96385,0.79781 -0.04684,0.0737 -0.08859,0.14797 -0.125067,0.2227 -0.353238,0.72242 -0.224768,1.4756 0.254267,2.04931 0.165409,-0.34136 0.480086,-0.53352 0.925592,-0.57304 0.11977,-0.008 0.2476,-10e-4 0.383468,0.0181 0.645185,0.0938 1.444418,-0.18354 1.907521,-0.86706 0.0437,-0.0646 0.08285,-0.12865 0.117314,-0.19273 0.332101,-0.61619 0.247971,-1.22486 -0.148323,-1.79508 z m -0.25065,3.40981 c -0.164642,0.29934 -0.469385,0.48813 -0.912155,0.54669 -0.119159,0.013 -0.247429,0.014 -0.383985,10e-4 -0.642022,-0.0615 -1.451847,0.2359 -1.819665,1.09802 -0.03418,0.0802 -0.06312,0.16026 -0.08683,0.23976 -0.23089,0.77254 0.02289,1.48471 0.582436,1.97024 0.107397,-0.35759 0.38517,-0.59407 0.816033,-0.70118 0.116291,-0.0259 0.242475,-0.0399 0.378816,-0.0414 0.64681,-0.007 1.38908,-0.40078 1.746794,-1.14815 0.03374,-0.0706 0.06307,-0.14004 0.08786,-0.20875 0.239048,-0.66129 0.07039,-1.2502 -0.409309,-1.75632 z m 53.73251,0 c -0.1654,0.34137 -0.47957,0.53352 -0.92507,0.57304 -0.11977,0.008 -0.24812,0.002 -0.38399,-0.0175 -0.64518,-0.0939 -1.44442,0.183 -1.90752,0.86653 -0.0437,0.0646 -0.0829,0.12918 -0.11731,0.19326 -0.33211,0.61617 -0.24797,1.22434 0.14832,1.79455 0.20504,-0.27046 0.53054,-0.40836 0.97417,-0.39787 0.11887,0.005 0.24477,0.0246 0.37675,0.0584 0.61908,0.15853 1.46093,-0.008 1.96385,-0.79781 0.0468,-0.0737 0.0886,-0.14848 0.12507,-0.22322 0.35324,-0.72241 0.22477,-1.4756 -0.25427,-2.04931 z m -53.48186,3.40982 c -0.11412,0.31879 -0.383251,0.55 -0.80828,0.67432 -0.114782,0.0306 -0.240453,0.051 -0.376231,0.0589 -0.638062,0.0367 -1.386464,0.45038 -1.622763,1.34915 -0.02196,0.0836 -0.03881,0.16608 -0.05064,0.2475 -0.114946,0.78738 0.233835,1.45352 0.855308,1.85089 0.05536,-0.36781 0.295533,-0.64124 0.704919,-0.80969 0.110927,-0.0425 0.233202,-0.0747 0.367449,-0.0961 0.637045,-0.10128 1.312259,-0.59762 1.550407,-1.38893 0.02244,-0.0747 0.04044,-0.14812 0.05426,-0.2196 0.133617,-0.68821 -0.125997,-1.24302 -0.674429,-1.66642 z m 53.16713,0.44592 c -0.21225,0.30792 -0.54883,0.44868 -0.99123,0.4201 -0.11849,-0.0109 -0.24298,-0.0357 -0.37313,-0.0754 -0.61734,-0.1892 -1.44352,-0.0391 -2.00416,0.56582 -0.0529,0.057 -0.10145,0.11446 -0.14522,0.17258 -0.42179,0.55901 -0.43163,1.17411 -0.12455,1.7961 0.24168,-0.23725 0.58432,-0.32712 1.02017,-0.25215 0.11644,0.0228 0.23806,0.0596 0.36331,0.11213 0.58798,0.2469 1.44177,0.20503 2.05015,-0.49605 0.0567,-0.0653 0.10843,-0.13212 0.15505,-0.19997 0.45122,-0.65579 0.43337,-1.41053 0.0496,-2.04311 z m -52.399677,2.87915 c -0.06551,0.33225 -0.297952,0.59938 -0.700268,0.78335 -0.10905,0.0468 -0.230209,0.0849 -0.363313,0.11213 -0.625391,0.12782 -1.305099,0.64467 -1.414488,1.56514 -0.01016,0.0857 -0.01553,0.16952 -0.01601,0.25164 -0.0053,0.79392 0.429969,1.40322 1.100272,1.71136 0.0053,-0.37201 0.206152,-0.67595 0.589157,-0.8996 0.1042,-0.0575 0.221174,-0.10654 0.351425,-0.14624 0.618086,-0.18845 1.219947,-0.77431 1.342654,-1.59459 0.01154,-0.0773 0.01884,-0.1528 0.02222,-0.2258 0.0332,-0.70294 -0.307096,-1.2173 -0.91164,-1.55739 z m 49.394987,0.82727 c -0.44457,-0.013 -0.92289,0.12006 -1.32509,0.44644 -0.0607,0.0493 -0.11718,0.0998 -0.16899,0.15141 -0.49926,0.49666 -0.59729,1.10824 -0.37881,1.76923 0.27325,-0.20326 0.62643,-0.24511 1.04859,-0.11058 0.1124,0.0388 0.22769,0.0923 0.3447,0.16174 0.54969,0.32643 1.40207,0.40155 2.10081,-0.20566 0.0651,-0.0566 0.12539,-0.11523 0.18088,-0.17568 0.53691,-0.5841 0.62356,-1.32972 0.33437,-2.00848 -0.25308,0.27251 -0.60509,0.36255 -1.03826,0.27076 -0.1156,-0.0275 -0.2352,-0.0696 -0.35814,-0.12763 -0.21852,-0.10325 -0.47332,-0.16374 -0.74006,-0.17155 z m -48.155695,2.36708 c -0.01886,0.34094 -0.212821,0.63725 -0.587605,0.87481 -0.101961,0.0614 -0.217209,0.11554 -0.345741,0.1607 -0.60394,0.21194 -1.208852,0.81765 -1.195881,1.74494 0.0013,0.0864 0.0067,0.17065 0.01704,0.25217 h 5.29e-4 c 0.09935,0.78818 0.610346,1.33452 1.316813,1.55273 -0.04283,-0.37023 0.117548,-0.69869 0.469258,-0.97143 0.09613,-0.071 0.205871,-0.13506 0.330234,-0.1917 0.590015,-0.26854 1.112569,-0.93037 1.124048,-1.76459 0.0011,-0.0786 -0.0011,-0.15463 -0.0078,-0.22787 -0.06221,-0.70542 -0.472896,-1.17364 -1.120946,-1.42976 z m 46.528795,0.88255 c -0.36597,-0.0113 -0.75323,0.076 -1.10906,0.2935 -0.0671,0.0411 -0.13007,0.0841 -0.18863,0.12866 -0.56448,0.42916 -0.74399,1.02673 -0.61344,1.71395 0.29884,-0.1673 0.65552,-0.1628 1.05789,0.0264 0.10675,0.0533 0.21466,0.12172 0.32197,0.20617 0.5042,0.39705 1.3423,0.58282 2.11631,0.0739 0.0721,-0.0475 0.1395,-0.0979 0.20258,-0.15036 v 5.2e-4 c 0.6103,-0.50735 0.79483,-1.23368 0.59949,-1.94595 -0.2879,0.23515 -0.64939,0.27668 -1.06719,0.12659 -0.1111,-0.043 -0.22427,-0.10128 -0.33851,-0.17568 -0.27064,-0.17634 -0.61543,-0.28632 -0.98141,-0.29764 z m -44.863656,2.13611 c 0.02606,0.34233 -0.128637,0.66272 -0.470806,0.94766 -0.09352,0.0743 -0.200942,0.14307 -0.323003,0.20462 -0.573639,0.28912 -1.096772,0.97036 -0.965905,1.88964 0.01222,0.0857 0.02848,0.16838 0.04909,0.24803 0.198891,0.77015 0.776528,1.24742 1.50648,1.37497 -0.089,-0.36243 0.02868,-0.70947 0.344191,-1.02516 0.08669,-0.0826 0.187817,-0.15996 0.304396,-0.232 0.552918,-0.34148 0.990039,-1.06634 0.894586,-1.89946 -0.009,-0.0785 -0.0213,-0.15361 -0.03721,-0.2258 -0.152623,-0.69563 -0.622891,-1.11102 -1.301828,-1.2825 z m 42.804716,0.88618 c -0.28259,-0.007 -0.57773,0.0469 -0.86461,0.17568 -0.0721,0.0324 -0.1406,0.0673 -0.20465,0.10434 -0.61739,0.3565 -0.871772,0.93059 -0.82844,1.63128 0.31845,-0.12938 0.67264,-0.0798 1.04911,0.15915 0.0995,0.0665 0.19848,0.14786 0.29458,0.24544 0.45158,0.4587 1.26139,0.74893 2.09563,0.34258 0.0777,-0.0379 0.15127,-0.0789 0.22068,-0.12298 0.67138,-0.42554 0.94767,-1.12188 0.84549,-1.85501 -0.31673,0.19583 -0.68227,0.18954 -1.07857,-0.0139 -0.10499,-0.0571 -0.20966,-0.12976 -0.3137,-0.21857 -0.3081,-0.26311 -0.74454,-0.43782 -1.21552,-0.44799 z m -40.75921,1.91133 c 0.06882,0.33656 -0.04431,0.67584 -0.348842,1.00192 -0.08372,0.0856 -0.182436,0.16792 -0.296128,0.2444 -0.534419,0.35933 -0.968915,1.10177 -0.724557,1.99815 0.02281,0.0835 0.04918,0.16378 0.07959,0.24028 0.293376,0.73982 0.925915,1.14139 1.66669,1.1776 -0.133209,-0.34864 -0.05887,-0.70729 0.215506,-1.05979 0.07591,-0.0928 0.167007,-0.18275 0.273906,-0.2687 0.506858,-0.40732 0.851781,-1.1811 0.653755,-1.99814 -0.01868,-0.077 -0.04035,-0.15023 -0.06511,-0.22012 -0.237996,-0.67354 -0.757613,-1.02949 -1.4548,-1.1156 z m 38.3168,0.84277 c -0.194208,-5.3e-4 -0.394478,0.0275 -0.595357,0.0893 -0.07575,0.0234 -0.147754,0.0495 -0.216024,0.0785 -0.657975,0.27875 -0.981668,0.81873 -1.024822,1.52018 0.332059,-0.0894 0.678311,0.003 1.022754,0.28678 0.09061,0.0783 0.1781,0.17129 0.261503,0.28006 0.391879,0.51137 1.160836,0.89985 2.040336,0.60043 0.082,-0.0279 0.16017,-0.0595 0.23463,-0.0946 0.72017,-0.33866 1.0816,-0.99487 1.07185,-1.73618 -0.33954,0.15455 -0.70214,0.10259 -1.07082,-0.14932 -0.0973,-0.07 -0.1924,-0.15548 -0.28476,-0.25681 -0.32825,-0.36031 -0.85667,-0.61706 -1.43929,-0.61851 z m -35.935889,1.68811 c 0.109695,0.32595 0.03883,0.67692 -0.223258,1.03809 -0.07256,0.0951 -0.160143,0.18858 -0.263572,0.27851 -0.486236,0.42254 -0.826357,1.21343 -0.472871,2.07203 0.03297,0.08 0.06941,0.15631 0.109042,0.2284 0.382799,0.69719 1.060585,1.01644 1.79951,0.96056 -0.175466,-0.32882 -0.146193,-0.69312 0.08217,-1.07632 0.06376,-0.10127 0.142923,-0.20183 0.238246,-0.30021 0.451879,-0.46612 0.698269,-1.27518 0.402075,-2.06118 -0.02795,-0.0741 -0.05839,-0.14451 -0.09148,-0.21082 -0.318312,-0.63911 -0.877095,-0.92906 -1.579866,-0.92906 z m 33.160655,0.75492 c -0.100419,0.002 -0.202559,0.0126 -0.305947,0.031 -0.07795,0.0139 -0.152562,0.0308 -0.223775,0.0511 -0.686235,0.19591 -1.072663,0.69216 -1.201565,1.3817 0.339647,-0.0476 0.670996,0.0864 0.977272,0.41028 0.08012,0.0888 0.155594,0.19194 0.224809,0.31002 0.325155,0.55506 1.039027,1.03452 1.948865,0.84639 0.0848,-0.0176 0.166207,-0.039 0.244448,-0.0646 0.756657,-0.24672 1.197105,-0.85258 1.279087,-1.58941 -0.356342,0.11133 -0.710057,0.015 -1.044976,-0.28058 -0.08792,-0.0815 -0.171974,-0.17792 -0.251167,-0.28987 -0.328431,-0.46457 -0.944109,-0.8225 -1.647051,-0.80609 z m -30.234517,1.44579 c -0.08341,0.001 -0.16886,0.008 -0.255816,0.0181 0.148612,0.30936 0.121731,0.66555 -0.09303,1.05566 -0.06005,0.10325 -0.135093,0.20661 -0.22636,0.30848 -0.42907,0.47869 -0.668097,1.30441 -0.20982,2.11027 0.04273,0.0751 0.0886,0.14598 0.13695,0.21238 0.467157,0.64227 1.179497,0.87308 1.903904,0.72443 -0.215766,-0.30302 -0.23324,-0.66702 -0.05581,-1.07477 0.05025,-0.10818 0.116087,-0.21726 0.197937,-0.32656 0.387998,-0.51791 0.529474,-1.34954 0.139535,-2.08961 -0.0368,-0.0697 -0.0759,-0.13541 -0.116797,-0.19688 -0.344345,-0.51831 -0.836835,-0.74985 -1.420691,-0.74149 z m 27.330085,0.63917 c -0.05107,-10e-4 -0.102808,-5.3e-4 -0.155041,0.002 -0.07876,0.004 -0.154507,0.0115 -0.227392,0.0228 -0.702179,0.10807 -1.144752,0.54985 -1.358675,1.2148 0.342443,-0.004 0.65165,0.17061 0.913708,0.52964 0.06802,0.0979 0.12992,0.20932 0.183465,0.33483 0.251444,0.5898 0.896435,1.15447 1.821729,1.08201 0.08623,-0.007 0.169904,-0.0181 0.25065,-0.0336 0.780844,-0.14973 1.293168,-0.6951 1.466168,-1.41477 -0.367141,0.0661 -0.7055,-0.0729 -1.000527,-0.40718 -0.07697,-0.0916 -0.147873,-0.19709 -0.212407,-0.31778 -0.286828,-0.53671 -0.915619,-0.99291 -1.681678,-1.01276 z m -24.179136,1.16881 c -0.159098,0.003 -0.323562,0.0272 -0.492514,0.0709 0.185561,0.28675 0.204374,0.64219 0.04186,1.05514 -0.04617,0.10975 -0.107292,0.22198 -0.184498,0.33431 -0.362926,0.52775 -0.494121,1.37421 0.06461,2.11235 0.05209,0.0688 0.106235,0.13277 0.162791,0.19222 0.546448,0.57504 1.283691,0.7113 1.980906,0.46917 -0.254111,-0.27119 -0.320026,-0.62895 -0.198452,-1.05513 0.03539,-0.11353 0.0865,-0.23004 0.152973,-0.34879 0.315216,-0.56277 0.344899,-1.40202 -0.134368,-2.08133 -0.04524,-0.0641 -0.09188,-0.12398 -0.140055,-0.17931 -0.347726,-0.39998 -0.775954,-0.57875 -1.253244,-0.56942 z m 20.821469,0.50897 c -0.705826,0.0151 -1.197905,0.39171 -1.496145,1.01948 0.338049,0.0421 0.619939,0.25517 0.831536,0.64435 0.05429,0.10566 0.100571,0.22394 0.136954,0.35498 0.170777,0.61566 0.733561,1.25915 1.659452,1.30679 0.08626,0.004 0.170733,0.004 0.252717,-0.001 0.79273,-0.0477 1.371338,-0.52238 1.634649,-1.21222 -0.371939,0.0189 -0.688989,-0.16122 -0.937999,-0.52913 -0.06439,-0.10029 -0.121125,-0.21454 -0.169509,-0.34207 -0.229425,-0.60508 -0.854997,-1.16787 -1.684263,-1.23443 -0.07817,-0.005 -0.154108,-0.009 -0.227392,-0.007 z m -17.492745,0.8624 c -0.230117,0.004 -0.467336,0.0586 -0.708535,0.15708 0.220542,0.25817 0.286261,0.60685 0.18088,1.03654 -0.03095,0.1146 -0.07622,0.23317 -0.13747,0.35447 -0.287827,0.56963 -0.304925,1.42393 0.349878,2.07926 0.06103,0.0611 0.123371,0.11725 0.187598,0.16845 0.620677,0.49553 1.372131,0.53114 2.029484,0.19481 -0.2905,-0.23338 -0.405522,-0.57842 -0.344707,-1.0169 0.01918,-0.11722 0.05311,-0.23966 0.102328,-0.36636 0.233485,-0.60078 0.14509,-1.43464 -0.419128,-2.03844 -0.05328,-0.0571 -0.107334,-0.10966 -0.162276,-0.1576 -0.33036,-0.28874 -0.694517,-0.41877 -1.078052,-0.41131 z m 14.091664,0.35602 c -0.574837,0.01 -1.027109,0.30449 -1.361258,0.81021 0.326316,0.0896 0.576345,0.34019 0.731275,0.75441 0.03897,0.11206 0.06858,0.23531 0.08631,0.36997 0.08315,0.63271 0.549888,1.34794 1.461517,1.52018 0.08489,0.016 0.168699,0.0269 0.250649,0.0331 0.792316,0.0594 1.430577,-0.33388 1.783486,-0.98124 -0.370724,-0.0301 -0.659999,-0.25019 -0.856858,-0.64694 -0.05021,-0.10773 -0.09122,-0.2282 -0.121967,-0.36067 -0.145761,-0.62859 -0.688854,-1.26743 -1.49666,-1.44731 -0.07618,-0.0169 -0.150327,-0.0297 -0.222741,-0.0382 -0.08716,-0.01 -0.171632,-0.0149 -0.253752,-0.0135 z m -10.63115,0.5317 c -0.30151,0.005 -0.603952,0.10249 -0.902855,0.27851 0.253561,0.22364 0.367377,0.559 0.324036,0.99933 -0.01437,0.11783 -0.04238,0.24171 -0.08579,0.37049 -0.203843,0.60433 -0.100441,1.45361 0.646005,2.01106 0.06956,0.0519 0.140511,0.0989 0.211889,0.14055 v -5.3e-4 c 0.689843,0.4037 1.444814,0.33157 2.049639,-0.0998 -0.324939,-0.18954 -0.49076,-0.51593 -0.495615,-0.96058 0.0016,-0.11931 0.01699,-0.24558 0.04703,-0.37874 0.142727,-0.63201 -0.06987,-1.44629 -0.714737,-1.95992 -0.06091,-0.0485 -0.122292,-0.0924 -0.183466,-0.13176 -0.294172,-0.1892 -0.594626,-0.27449 -0.896136,-0.26869 z m 7.122578,0.18189 c -0.4682,0.007 -0.877697,0.22461 -1.226375,0.61127 0.309858,0.13912 0.52071,0.42588 0.612929,0.86034 0.02204,0.11712 0.0329,0.24444 0.03049,0.38082 -0.01148,0.64102 0.345974,1.4208 1.228441,1.72221 0.08212,0.028 0.163805,0.051 0.244449,0.0688 0.783655,0.17255 1.471635,-0.13047 1.913204,-0.72237 -0.363509,-0.0811 -0.619055,-0.34045 -0.757633,-0.76112 -0.03442,-0.11376 -0.05814,-0.23808 -0.06978,-0.37359 -0.05499,-0.64298 -0.502067,-1.3525 -1.273402,-1.64988 -0.07279,-0.028 -0.144201,-0.0515 -0.214472,-0.0708 -0.169095,-0.0464 -0.331796,-0.0678 -0.487861,-0.0656 z m -3.616071,0.17155 c -0.365084,0.0193 -0.711039,0.1744 -1.035672,0.43972 0.28589,0.18393 0.448216,0.4985 0.47184,0.94353 0.0036,0.11945 -0.0053,0.24708 -0.02894,0.38186 -0.111068,0.63181 0.119429,1.46272 0.952984,1.9072 0.0777,0.0414 0.155596,0.0775 0.233594,0.1085 0.02767,0.0111 0.05553,0.0214 0.08321,0.031 0.729622,0.24526 1.430439,0.0392 1.940593,-0.46557 -0.350286,-0.13411 -0.566149,-0.42994 -0.640318,-0.86963 -0.01701,-0.11845 -0.02138,-0.24624 -0.01241,-0.38289 0.04282,-0.6481 -0.294559,-1.42159 -1.014482,-1.84054 -0.068,-0.0395 -0.135731,-0.0745 -0.202588,-0.10489 -0.02373,-0.011 -0.04721,-0.0213 -0.0708,-0.031 -0.232099,-0.0915 -0.457961,-0.12883 -0.677013,-0.11729 z" />
  </g>
</svg>
