<?xml version="1.0" encoding="UTF-8" standalone="no"?>
<!-- Created with Inkscape (http://www.inkscape.org/) -->

<svg
   width="41.025082mm"
   height="41.025082mm"
   viewBox="0 0 41.025082 41.025082"
   version="1.1"
   id="svg5"
   inkscape:version="1.1.1 (3bf5ae0d25, 2021-09-20, custom)"
   sodipodi:docname="build_coin.svg"
   xmlns:inkscape="http://www.inkscape.org/namespaces/inkscape"
   xmlns:sodipodi="http://sodipodi.sourceforge.net/DTD/sodipodi-0.dtd"
   xmlns="http://www.w3.org/2000/svg"
   xmlns:svg="http://www.w3.org/2000/svg">
  <sodipodi:namedview
     id="namedview7"
     pagecolor="#ffffff"
     bordercolor="#666666"
     borderopacity="1.0"
     inkscape:pageshadow="2"
     inkscape:pageopacity="0.0"
     inkscape:pagecheckerboard="0"
     inkscape:document-units="mm"
     showgrid="false"
     inkscape:zoom="1"
     inkscape:cx="159.5"
     inkscape:cy="95.5"
     inkscape:window-width="1920"
     inkscape:window-height="1034"
     inkscape:window-x="0"
     inkscape:window-y="22"
     inkscape:window-maximized="1"
     inkscape:current-layer="layer1" />
  <defs
     id="defs2" />
  <g
     inkscape:label="Layer 1"
     inkscape:groupmode="layer"
     id="layer1"
     transform="translate(-22.191687,-26.498076)">
    <path
       style="color:#000000;fill:#aa0000;fill-opacity:0.97098;stroke-linecap:round;-inkscape-stroke:none"
       d="m 42.705078,26.498047 c -11.3098,0 -20.513672,9.201918 -20.513672,20.511719 0,11.3098 9.203872,20.513671 20.513672,20.513671 11.309801,0 20.511719,-9.203871 20.511719,-20.513671 0,-11.309801 -9.201918,-20.511719 -20.511719,-20.511719 z m 0,3.199219 c 9.580394,0 17.3125,7.732106 17.3125,17.3125 0,9.580394 -7.732106,17.3125 -17.3125,17.3125 -9.580394,0 -17.3125,-7.732106 -17.3125,-17.3125 0,-9.580394 7.732106,-17.3125 17.3125,-17.3125 z"
       id="path31" />
    <g
       aria-label="build"
       id="text2764"
       style="font-size:10.5833px;line-height:1.25;fill:#aa0000;stroke-width:0.264583">
      <path
         d="m 29.769658,46.891762 c 0.552936,-0.651121 1.054196,-0.976681 1.503779,-0.971514 0.444416,0.0052 0.785479,0.191203 1.018023,0.547769 0.232543,0.361734 0.341063,0.82682 0.315225,1.390091 -0.02584,0.568439 -0.232543,1.085202 -0.620115,1.555456 -0.248046,0.299722 -0.676959,0.635618 -1.281572,1.007687 -0.604612,0.372069 -1.095537,0.485757 -1.472773,0.346231 L 29.02552,50.431587 c -0.279052,-0.568439 -0.320393,-1.188555 -0.129191,-1.855178 0.191202,-0.666624 0.485757,-1.229896 0.873329,-1.684647 z m -2.955883,4.738714 c 0,0.279052 0.09819,0.516763 0.289387,0.707965 0.191203,0.191202 0.428913,0.289387 0.702798,0.289387 0.165364,0 0.315225,-0.03617 0.449583,-0.10852 0.397907,0.227375 0.842323,0.320393 1.343583,0.273884 0.496092,-0.04134 0.992184,-0.165364 1.483109,-0.372069 0.490925,-0.201538 0.956011,-0.465087 1.390092,-0.780312 0.43408,-0.315225 0.785479,-0.635618 1.049028,-0.956011 0.511595,-0.620115 0.837155,-1.364253 0.976681,-2.227247 0.139526,-0.862994 0.08785,-1.669143 -0.144693,-2.408114 -0.232543,-0.738971 -0.656289,-1.32808 -1.266069,-1.762161 -0.614947,-0.428913 -1.41593,-0.527098 -2.402946,-0.284219 -0.713133,0.180867 -1.364254,0.542601 -1.948196,1.085202 -0.01034,-0.547769 -0.0155,-1.095537 -0.02067,-1.643306 -0.0052,-0.547768 -0.0052,-1.095537 -0.0052,-1.643305 0,-0.273884 -0.09819,-0.506428 -0.289387,-0.702797 -0.19637,-0.19637 -0.43408,-0.294555 -0.707965,-0.294555 -0.273884,0 -0.511595,0.09818 -0.702797,0.294555 -0.191202,0.196369 -0.289387,0.428913 -0.289387,0.702797 0,1.638138 0.0155,3.276275 0.04651,4.914413 0.02584,1.638138 0.04134,3.276275 0.04651,4.914413 z"
         style="font-family:'Parenda Pop Comic';-inkscape-font-specification:'Parenda Pop Comic, Normal'"
         id="path20057" />
      <path
         d="m 40.528657,51.754499 c -0.0052,0.103353 -0.0052,0.258381 -0.0052,0.470254 0,0.273884 0.09819,0.506428 0.289387,0.69763 0.191203,0.19637 0.428913,0.294554 0.702798,0.294554 0.273884,0 0.511595,-0.09818 0.707964,-0.294554 0.191203,-0.191202 0.289388,-0.423746 0.289388,-0.69763 0.0052,-1.007687 0.02584,-2.015374 0.05168,-3.028229 0.02584,-1.012855 0.04651,-2.02571 0.06718,-3.033397 0.01033,-0.506428 0.02067,-0.873329 0.03617,-1.105872 0.0155,-0.232543 -0.03617,-0.583942 -0.149861,-1.059364 -0.139526,-0.237711 -0.346231,-0.392739 -0.60978,-0.459919 -0.263549,-0.06718 -0.516762,-0.03101 -0.754473,0.103353 -0.366902,0.222208 -0.527098,0.542601 -0.485757,0.961179 v -0.0052 c -0.0052,0.671791 -0.01033,1.343583 -0.02584,2.020542 -0.0155,0.676959 -0.03101,1.348751 -0.04651,2.020542 -0.273884,0.294555 -0.52193,0.583942 -0.733803,0.868161 -0.211873,0.28422 -0.449583,0.558104 -0.702797,0.821653 -0.242879,0.248046 -0.439248,0.403075 -0.594277,0.465086 -0.160197,0.06201 -0.346231,-0.06201 -0.563272,-0.372069 -0.170531,-0.23771 -0.294554,-0.558103 -0.366901,-0.961178 -0.07235,-0.403075 -0.113688,-0.826821 -0.118856,-1.271236 -0.01033,-0.444416 0.0052,-0.878497 0.04651,-1.302242 0.03617,-0.423746 0.08785,-0.780312 0.144694,-1.064531 0.03101,-0.165365 0.05168,-0.299723 0.06718,-0.408243 0.0155,-0.10852 0.02067,-0.248046 0.02067,-0.428913 0,-0.273884 -0.09819,-0.511595 -0.289387,-0.707965 -0.19637,-0.191202 -0.43408,-0.289387 -0.707965,-0.289387 -0.273884,0 -0.511595,0.09819 -0.702797,0.289387 -0.191202,0.19637 -0.289387,0.434081 -0.289387,0.707965 v 0.180867 l 0.0155,-0.05168 c -0.118856,0.558103 -0.211873,1.209224 -0.273884,1.95853 -0.06201,0.749306 -0.04134,1.493444 0.05684,2.22208 0.09818,0.733803 0.299722,1.405594 0.60978,2.010207 0.30489,0.609779 0.775144,1.049028 1.400426,1.317744 0.599445,0.258382 1.136878,0.279052 1.6123,0.06201 0.475422,-0.21704 0.909502,-0.527098 1.302242,-0.930173 z"
         style="font-family:'Parenda Pop Comic';-inkscape-font-specification:'Parenda Pop Comic, Normal'"
         id="path20059" />
      <path
         d="m 46.388746,45.331139 c -0.02584,-0.273884 -0.139526,-0.496092 -0.346231,-0.676959 -0.211873,-0.180867 -0.449584,-0.258381 -0.723468,-0.237711 -0.273884,0.02067 -0.50126,0.134358 -0.682127,0.346231 -0.180866,0.211873 -0.258381,0.449584 -0.23771,0.723468 0.04651,1.095537 -0.03617,2.216912 -0.242879,3.369292 -0.211873,1.152381 -0.129191,2.253086 0.248046,3.307282 0.113688,0.248046 0.299723,0.418577 0.558104,0.516762 0.253214,0.09819 0.506427,0.08785 0.759641,-0.02584 0.248046,-0.10852 0.423745,-0.294555 0.52193,-0.552936 0.09818,-0.253214 0.08785,-0.506427 -0.02584,-0.759641 -0.02584,-0.07235 -0.04651,-0.118856 -0.05168,-0.144694 -0.01034,-0.02584 -0.02067,-0.08268 -0.03101,-0.175699 -0.113688,-0.692462 -0.09302,-1.601964 0.06718,-2.723339 0.160197,-1.121375 0.222208,-2.108392 0.186035,-2.966218 z m -0.604612,-2.015374 c 0.227375,-0.03101 0.423745,-0.134359 0.589109,-0.310058 0.160196,-0.175699 0.248046,-0.382404 0.258381,-0.625283 0.01034,-0.273884 -0.07751,-0.511595 -0.258381,-0.7183 -0.180867,-0.201537 -0.41341,-0.310058 -0.687294,-0.325561 -0.39274,-0.0155 -0.692462,0.07752 -0.899167,0.273885 -0.191203,0.144693 -0.310058,0.335895 -0.366902,0.568439 -0.05684,0.232543 -0.02584,0.459918 0.08785,0.676959 0.118855,0.237711 0.30489,0.397907 0.552936,0.485757 0.242878,0.08785 0.485757,0.07751 0.723468,-0.02584 z m -1.049029,-1.653641 c -0.06718,0.08785 -0.10852,0.139526 -0.113687,0.149861 0.02584,-0.04651 0.06718,-0.09302 0.113687,-0.149861 z"
         style="font-family:'Parenda Pop Comic';-inkscape-font-specification:'Parenda Pop Comic, Normal'"
         id="path20061" />
      <path
         d="m 48.848537,52.751851 c 0.09819,0.0155 0.201537,0.02067 0.30489,0.02067 0.39274,0 0.728635,-0.09819 1.012855,-0.294555 0.279052,-0.19637 0.418578,-0.428913 0.418578,-0.69763 v -0.139526 c 0,-0.273884 -0.139526,-0.506427 -0.418578,-0.702797 -0.134358,-0.09302 -0.273884,-0.160196 -0.428913,-0.206705 -0.0052,-1.291907 -0.02067,-2.583813 -0.04134,-3.880888 -0.03101,-1.638137 -0.04651,-3.276275 -0.04651,-4.914413 0,-0.273884 -0.09819,-0.511595 -0.289387,-0.707965 -0.19637,-0.191202 -0.428913,-0.289387 -0.702797,-0.289387 -0.279052,0 -0.516763,0.09819 -0.707965,0.289387 -0.191202,0.19637 -0.289387,0.434081 -0.289387,0.707965 0,1.638138 0.0155,3.276276 0.04651,4.914413 0.02584,1.519283 0.04134,3.033397 0.04651,4.547512 -0.02584,0.07751 -0.04134,0.160196 -0.04134,0.242878 v 0.139526 c 0,0.160197 0.05168,0.30489 0.149861,0.439248 0.04651,0.09302 0.103353,0.170532 0.180867,0.248047 0.191202,0.191202 0.428913,0.289387 0.707965,0.289387 0.03617,0 0.06718,0 0.09819,-0.0052 z"
         style="font-family:'Parenda Pop Comic';-inkscape-font-specification:'Parenda Pop Comic, Normal'"
         id="path20063" />
      <path
         d="m 55.638798,49.801136 c -0.558103,0.656289 -1.059363,0.976682 -1.503779,0.971514 -0.449584,-0.0052 -0.790647,-0.186035 -1.02319,-0.547768 -0.237711,-0.361734 -0.341064,-0.826821 -0.315225,-1.39526 0.02584,-0.563271 0.23771,-1.085201 0.625282,-1.555455 0.242879,-0.299723 0.671792,-0.635618 1.276404,-1.00252 0.604613,-0.366901 1.095537,-0.485757 1.477942,-0.346231 l 0.206705,0.330728 c 0.273884,0.568439 0.310057,1.188554 0.118855,1.855178 -0.191202,0.671792 -0.480589,1.235063 -0.862994,1.689814 z m 2.955883,1.82934 c 0,-1.638138 0.0155,-3.276275 0.04651,-4.914413 0.02584,-1.638138 0.04134,-3.276275 0.04651,-4.914413 0,-0.273884 -0.09819,-0.506428 -0.294555,-0.702797 -0.196369,-0.19637 -0.428913,-0.294555 -0.702797,-0.294555 -0.273884,0 -0.511595,0.09818 -0.702797,0.294555 -0.191202,0.196369 -0.289387,0.428913 -0.289387,0.702797 -0.0052,0.361734 -0.0052,0.723468 -0.01034,1.085202 -0.0052,0.361733 -0.0052,0.723467 -0.0052,1.085201 -0.795815,-0.21704 -1.674311,-0.07751 -2.63549,0.418578 -0.966346,0.50126 -1.684646,1.038693 -2.160068,1.617467 -0.511595,0.625283 -0.842323,1.364254 -0.981849,2.227247 -0.139526,0.862994 -0.09302,1.663976 0.139526,2.402947 0.232543,0.73897 0.656289,1.32808 1.271236,1.756993 0.60978,0.428913 1.410762,0.527098 2.402947,0.284219 0.666624,-0.160196 1.297074,-0.496092 1.886184,-1.012855 0.0052,0.268717 0.10852,0.496093 0.299722,0.682127 0.191202,0.186035 0.423745,0.279052 0.692462,0.279052 0.273884,0 0.506427,-0.09819 0.702797,-0.289387 0.19637,-0.191202 0.294555,-0.428913 0.294555,-0.707965 z"
         style="font-family:'Parenda Pop Comic';-inkscape-font-specification:'Parenda Pop Comic, Normal'"
         id="path20065" />
    </g>
  </g>
</svg>
