<?xml version="1.0" encoding="UTF-8" standalone="no"?>
<!-- Created with Inkscape (http://www.inkscape.org/) -->

<svg
   width="41.025082mm"
   height="41.025082mm"
   viewBox="0 0 41.025082 41.025082"
   version="1.1"
   id="svg5"
   inkscape:version="1.1.1 (3bf5ae0d25, 2021-09-20, custom)"
   sodipodi:docname="buy_coin.svg"
   xmlns:inkscape="http://www.inkscape.org/namespaces/inkscape"
   xmlns:sodipodi="http://sodipodi.sourceforge.net/DTD/sodipodi-0.dtd"
   xmlns="http://www.w3.org/2000/svg"
   xmlns:svg="http://www.w3.org/2000/svg">
  <sodipodi:namedview
     id="namedview7"
     pagecolor="#ffffff"
     bordercolor="#666666"
     borderopacity="1.0"
     inkscape:pageshadow="2"
     inkscape:pageopacity="0.0"
     inkscape:pagecheckerboard="0"
     inkscape:document-units="mm"
     showgrid="false"
     inkscape:zoom="1"
     inkscape:cx="159.5"
     inkscape:cy="95.5"
     inkscape:window-width="1920"
     inkscape:window-height="1034"
     inkscape:window-x="0"
     inkscape:window-y="22"
     inkscape:window-maximized="1"
     inkscape:current-layer="layer1" />
  <defs
     id="defs2" />
  <g
     inkscape:label="Layer 1"
     inkscape:groupmode="layer"
     id="layer1"
     transform="translate(-22.191687,-26.498076)">
    <path
       style="color:#000000;fill:#008000;fill-opacity:0.97098;stroke-linecap:round;-inkscape-stroke:none"
       d="m 42.705078,26.498047 c -11.3098,0 -20.513672,9.201918 -20.513672,20.511719 0,11.3098 9.203872,20.513671 20.513672,20.513671 11.309801,0 20.511719,-9.203871 20.511719,-20.513671 0,-11.309801 -9.201918,-20.511719 -20.511719,-20.511719 z m 0,3.199219 c 9.580394,0 17.3125,7.732106 17.3125,17.3125 0,9.580394 -7.732106,17.3125 -17.3125,17.3125 -9.580394,0 -17.3125,-7.732106 -17.3125,-17.3125 0,-9.580394 7.732106,-17.3125 17.3125,-17.3125 z"
       id="path31" />
    <g
       aria-label="buy"
       id="text2764"
       style="font-size:10.5833px;line-height:1.25;fill:#008000;stroke-width:0.264583">
      <path
         d="m 33.738395,46.170392 c 0.552936,-0.651121 1.054195,-0.976682 1.503779,-0.971514 0.444416,0.0052 0.785479,0.191202 1.018022,0.547768 0.232544,0.361734 0.341064,0.82682 0.315226,1.390092 -0.02584,0.568439 -0.232544,1.085201 -0.620116,1.555455 -0.248046,0.299723 -0.676959,0.635619 -1.281571,1.007688 -0.604612,0.372069 -1.095537,0.485757 -1.472774,0.346231 l -0.206705,-0.335896 c -0.279052,-0.568439 -0.320393,-1.188554 -0.12919,-1.855178 0.191202,-0.666624 0.485757,-1.229895 0.873329,-1.684646 z m -2.955883,4.738713 c 0,0.279052 0.09819,0.516763 0.289387,0.707965 0.191202,0.191202 0.428913,0.289387 0.702797,0.289387 0.165364,0 0.315226,-0.03617 0.449584,-0.10852 0.397907,0.227376 0.842323,0.320393 1.343583,0.273884 0.496092,-0.04134 0.992184,-0.165364 1.483109,-0.372069 0.490924,-0.201537 0.956011,-0.465086 1.390091,-0.780311 0.434081,-0.315226 0.78548,-0.635619 1.049029,-0.956011 0.511595,-0.620116 0.837155,-1.364254 0.976681,-2.227248 0.139526,-0.862993 0.08785,-1.669143 -0.144694,-2.408114 -0.232543,-0.73897 -0.656288,-1.32808 -1.266068,-1.76216 -0.614948,-0.428913 -1.41593,-0.527098 -2.402947,-0.28422 -0.713132,0.180867 -1.364253,0.542601 -1.948195,1.085202 -0.01034,-0.547769 -0.0155,-1.095537 -0.02067,-1.643305 -0.0052,-0.547769 -0.0052,-1.095537 -0.0052,-1.643306 0,-0.273884 -0.09819,-0.506427 -0.289387,-0.702797 -0.19637,-0.19637 -0.434081,-0.294555 -0.707965,-0.294555 -0.273884,0 -0.511595,0.09819 -0.702797,0.294555 -0.191202,0.19637 -0.289387,0.428913 -0.289387,0.702797 0,1.638138 0.0155,3.276276 0.04651,4.914413 0.02584,1.638138 0.04134,3.276276 0.04651,4.914413 z"
         style="font-family:'Parenda Pop Comic';-inkscape-font-specification:'Parenda Pop Comic, Normal';text-align:center;text-anchor:middle"
         id="path19984" />
      <path
         d="m 44.497394,51.033128 c -0.0052,0.103353 -0.0052,0.258382 -0.0052,0.470254 0,0.273885 0.09819,0.506428 0.289387,0.69763 0.191202,0.19637 0.428913,0.294555 0.702797,0.294555 0.273885,0 0.511595,-0.09819 0.707965,-0.294555 0.191202,-0.191202 0.289387,-0.423745 0.289387,-0.69763 0.0052,-1.007687 0.02584,-2.015374 0.05168,-3.028229 0.02584,-1.012855 0.04651,-2.02571 0.06718,-3.033397 0.01034,-0.506427 0.02067,-0.873329 0.03617,-1.105872 0.0155,-0.232543 -0.03617,-0.583942 -0.149861,-1.059363 -0.139526,-0.237711 -0.346231,-0.39274 -0.60978,-0.459919 -0.263549,-0.06718 -0.516763,-0.03101 -0.754474,0.103352 -0.366901,0.222208 -0.527097,0.542601 -0.485756,0.961179 v -0.0052 c -0.0052,0.671792 -0.01034,1.343583 -0.02584,2.020542 -0.0155,0.676959 -0.03101,1.348751 -0.04651,2.020542 -0.273884,0.294555 -0.521931,0.583942 -0.733803,0.868162 -0.211873,0.284219 -0.449584,0.558103 -0.702797,0.821652 -0.242879,0.248046 -0.439249,0.403075 -0.594278,0.465087 -0.160196,0.06201 -0.346231,-0.06201 -0.563271,-0.372069 -0.170532,-0.237711 -0.294555,-0.558104 -0.366901,-0.961179 -0.07235,-0.403075 -0.113688,-0.82682 -0.118856,-1.271236 -0.01034,-0.444416 0.0052,-0.878497 0.04651,-1.302242 0.03617,-0.423745 0.08785,-0.780312 0.144693,-1.064531 0.03101,-0.165364 0.05168,-0.299723 0.06718,-0.408243 0.0155,-0.10852 0.02067,-0.248046 0.02067,-0.428913 0,-0.273884 -0.09819,-0.511595 -0.289387,-0.707965 -0.19637,-0.191202 -0.434081,-0.289387 -0.707965,-0.289387 -0.273884,0 -0.511595,0.09819 -0.702797,0.289387 -0.191202,0.19637 -0.289387,0.434081 -0.289387,0.707965 v 0.180867 l 0.0155,-0.05168 c -0.118856,0.558104 -0.211873,1.209225 -0.273885,1.95853 -0.06201,0.749306 -0.04134,1.493445 0.05684,2.22208 0.09819,0.733803 0.299723,1.405594 0.60978,2.010207 0.30489,0.60978 0.775144,1.049028 1.400427,1.317745 0.599445,0.258381 1.136878,0.279052 1.6123,0.06201 0.475421,-0.21704 0.909502,-0.527098 1.302242,-0.930173 z"
         style="font-family:'Parenda Pop Comic';-inkscape-font-specification:'Parenda Pop Comic, Normal';text-align:center;text-anchor:middle"
         id="path19986" />
      <path
         d="m 49.029403,45.054184 c -0.242879,-0.124023 -0.496093,-0.144693 -0.754474,-0.06718 -0.258381,0.08268 -0.454751,0.242878 -0.583942,0.485757 -0.124023,0.242878 -0.144693,0.496092 -0.06201,0.759641 0.07751,0.263549 0.23771,0.459919 0.480589,0.583942 0.0052,0.0052 0.144694,0.144693 0.423745,0.408242 0.279052,0.268717 0.594277,0.568439 0.945676,0.899167 0.346231,0.330729 0.682127,0.645954 0.997352,0.940509 0.315225,0.299722 0.506427,0.485756 0.578774,0.552936 0.08785,0.08785 0.155029,0.165364 0.201538,0.227375 -0.542601,0.992185 -1.085202,1.994704 -1.617468,3.002391 -0.170531,0.315226 -0.330728,0.625283 -0.485756,0.930173 -0.160197,0.30489 -0.30489,0.620115 -0.439249,0.956011 -0.09302,0.258381 -0.07751,0.511595 0.04651,0.754474 0.118855,0.248046 0.310058,0.418577 0.568439,0.511595 0.258381,0.08785 0.511595,0.07235 0.759641,-0.04651 0.248046,-0.118855 0.418578,-0.310058 0.506427,-0.568439 0.113688,-0.273884 0.242879,-0.542601 0.382405,-0.811317 0.139526,-0.268717 0.279052,-0.532266 0.418578,-0.790647 0.645953,-1.224728 1.333247,-2.490796 2.061883,-3.798206 0.723467,-1.307409 1.446935,-2.54764 2.165235,-3.725859 0.144694,-0.232543 0.186035,-0.480589 0.129191,-0.749306 -0.06201,-0.268716 -0.206705,-0.475421 -0.439248,-0.625283 -0.232544,-0.144693 -0.485757,-0.186034 -0.749306,-0.12919 -0.268717,0.06201 -0.475422,0.206705 -0.620115,0.439248 -0.279052,0.454751 -0.558104,0.919838 -0.831988,1.390092 -0.279052,0.475421 -0.558104,0.956011 -0.837156,1.441768 -0.52193,-0.537434 -1.100704,-1.095537 -1.725987,-1.669144 -0.625283,-0.573606 -1.13171,-1.007687 -1.519282,-1.302242 z"
         style="font-family:'Parenda Pop Comic';-inkscape-font-specification:'Parenda Pop Comic, Normal';text-align:center;text-anchor:middle"
         id="path19988" />
    </g>
  </g>
</svg>
