<?xml version="1.0" encoding="UTF-8" standalone="no"?>
<!-- Created with Inkscape (http://www.inkscape.org/) -->

<svg
   width="41.025082mm"
   height="41.025082mm"
   viewBox="0 0 41.025082 41.025082"
   version="1.1"
   id="svg5"
   inkscape:version="1.1.1 (3bf5ae0d25, 2021-09-20, custom)"
   sodipodi:docname="doc_coin.svg"
   xmlns:inkscape="http://www.inkscape.org/namespaces/inkscape"
   xmlns:sodipodi="http://sodipodi.sourceforge.net/DTD/sodipodi-0.dtd"
   xmlns="http://www.w3.org/2000/svg"
   xmlns:svg="http://www.w3.org/2000/svg">
  <sodipodi:namedview
     id="namedview7"
     pagecolor="#ffffff"
     bordercolor="#666666"
     borderopacity="1.0"
     inkscape:pageshadow="2"
     inkscape:pageopacity="0.0"
     inkscape:pagecheckerboard="0"
     inkscape:document-units="mm"
     showgrid="false"
     inkscape:zoom="1"
     inkscape:cx="159.5"
     inkscape:cy="95.5"
     inkscape:window-width="1920"
     inkscape:window-height="1034"
     inkscape:window-x="0"
     inkscape:window-y="22"
     inkscape:window-maximized="1"
     inkscape:current-layer="layer1" />
  <defs
     id="defs2" />
  <g
     inkscape:label="Layer 1"
     inkscape:groupmode="layer"
     id="layer1"
     transform="translate(-22.191687,-26.498076)">
    <path
       style="color:#000000;fill:#ffcc00;fill-opacity:0.97098;stroke-linecap:round;-inkscape-stroke:none"
       d="m 42.705078,26.498047 c -11.3098,0 -20.513672,9.201918 -20.513672,20.511719 0,11.3098 9.203872,20.513671 20.513672,20.513671 11.309801,0 20.511719,-9.203871 20.511719,-20.513671 0,-11.309801 -9.201918,-20.511719 -20.511719,-20.511719 z m 0,3.199219 c 9.580394,0 17.3125,7.732106 17.3125,17.3125 0,9.580394 -7.732106,17.3125 -17.3125,17.3125 -9.580394,0 -17.3125,-7.732106 -17.3125,-17.3125 0,-9.580394 7.732106,-17.3125 17.3125,-17.3125 z"
       id="path31" />
    <g
       aria-label="doc"
       id="text2764"
       style="font-size:10.5833px;line-height:1.25;fill:#ffcc00;stroke-width:0.264583">
      <path
         d="m 34.784194,50.004757 c -0.558104,0.656289 -1.059364,0.976682 -1.50378,0.971514 -0.449583,-0.0052 -0.790647,-0.186035 -1.02319,-0.547769 -0.237711,-0.361733 -0.341063,-0.82682 -0.315225,-1.395259 0.02584,-0.563271 0.237711,-1.085201 0.625283,-1.555455 0.242878,-0.299723 0.671791,-0.635619 1.276404,-1.00252 0.604612,-0.366902 1.095536,-0.485757 1.477941,-0.346231 l 0.206705,0.330728 c 0.273884,0.568439 0.310058,1.188554 0.118855,1.855178 -0.191202,0.671792 -0.480589,1.235063 -0.862993,1.689814 z m 2.955882,1.82934 c 0,-1.638138 0.0155,-3.276275 0.04651,-4.914413 0.02584,-1.638138 0.04134,-3.276276 0.04651,-4.914413 0,-0.273884 -0.09818,-0.506428 -0.294554,-0.702797 -0.19637,-0.19637 -0.428913,-0.294555 -0.702798,-0.294555 -0.273884,0 -0.511595,0.09819 -0.702797,0.294555 -0.191202,0.196369 -0.289387,0.428913 -0.289387,0.702797 -0.0052,0.361734 -0.0052,0.723468 -0.01033,1.085201 -0.0052,0.361734 -0.0052,0.723468 -0.0052,1.085202 -0.795814,-0.21704 -1.674311,-0.07751 -2.635489,0.418578 -0.966347,0.50126 -1.684647,1.038693 -2.160068,1.617467 -0.511595,0.625283 -0.842324,1.364253 -0.981849,2.227247 -0.139526,0.862994 -0.09302,1.663976 0.139525,2.402947 0.232544,0.73897 0.656289,1.32808 1.271237,1.756993 0.60978,0.428913 1.410762,0.527098 2.402946,0.284219 0.666624,-0.160196 1.297074,-0.496092 1.886184,-1.012855 0.0052,0.268717 0.10852,0.496092 0.299722,0.682127 0.191202,0.186035 0.423746,0.279052 0.692462,0.279052 0.273884,0 0.506428,-0.09819 0.702797,-0.289387 0.19637,-0.191202 0.294555,-0.428913 0.294555,-0.707965 z"
         style="font-family:'Parenda Pop Comic';-inkscape-font-specification:'Parenda Pop Comic, Normal';text-align:center;text-anchor:middle"
         id="path19835" />
      <path
         d="m 42.69583,45.33839 c 0.07751,0.08785 0.165364,0.160196 0.253214,0.206705 l 0.366901,0.227376 c 0.718301,0.496092 1.105873,1.038693 1.162716,1.627802 0.05684,0.58911 -0.05684,1.136878 -0.335895,1.643305 -0.28422,0.506428 -0.651121,0.930173 -1.100705,1.271237 -0.449583,0.346231 -0.82682,0.516762 -1.121375,0.52193 l -0.32556,-0.237711 c -0.470254,-0.423745 -0.744139,-0.981849 -0.816485,-1.674311 -0.07751,-0.692462 -0.02067,-1.322912 0.165364,-1.886184 0.155029,-0.470254 0.366901,-0.852658 0.635618,-1.15238 0.263549,-0.294555 0.635618,-0.48059 1.116207,-0.547769 z m 0.961179,-1.63297 c -0.191202,-0.232543 -0.439249,-0.356566 -0.744138,-0.372069 -0.475422,0.04134 -0.857827,0.09302 -1.147214,0.149861 -0.294554,0.05684 -0.645953,0.237711 -1.059363,0.537433 -0.645953,0.470254 -1.13171,1.095537 -1.462439,1.881016 -0.335895,0.790647 -0.496092,1.607132 -0.490924,2.449455 0.0052,0.842324 0.180867,1.648473 0.537433,2.41845 0.356566,0.769976 0.899167,1.364253 1.63297,1.793166 0.521931,0.30489 1.080034,0.366902 1.679479,0.19637 0.594277,-0.170532 1.157548,-0.475422 1.684646,-0.909502 0.527098,-0.434081 0.987017,-0.945676 1.374589,-1.534785 0.387572,-0.58911 0.635618,-1.147213 0.744138,-1.674311 0.227376,-1.142046 0.09819,-2.087722 -0.382404,-2.837028 -0.480589,-0.749305 -1.178219,-1.415929 -2.087721,-1.989536 -0.08785,-0.05168 -0.180867,-0.08785 -0.279052,-0.10852 z"
         style="font-family:'Parenda Pop Comic';-inkscape-font-specification:'Parenda Pop Comic, Normal';text-align:center;text-anchor:middle"
         id="path19837" />
      <path
         d="m 54.157628,45.999846 c 0.263549,0.07752 0.511595,0.05168 0.754473,-0.07751 0.242879,-0.129191 0.403075,-0.330728 0.48059,-0.594277 0.07751,-0.263549 0.05168,-0.511595 -0.07751,-0.754474 -0.129191,-0.242878 -0.32556,-0.403075 -0.589109,-0.480589 -1.049029,-0.258381 -2.036045,-0.299722 -2.955883,-0.124023 -0.925005,0.175699 -1.798334,0.625283 -2.625154,1.348751 -0.816485,0.713132 -1.379757,1.514114 -1.694982,2.397778 -0.315225,0.888832 -0.377237,1.715652 -0.175699,2.485629 0.19637,0.769976 0.656288,1.410762 1.379756,1.917189 0.7183,0.511595 1.710485,0.744139 2.966218,0.707965 0.232543,-0.0052 0.52193,-0.02067 0.868161,-0.04134 0.341064,-0.0155 0.682127,-0.06201 1.018023,-0.139526 0.335895,-0.07235 0.635618,-0.186034 0.909502,-0.341063 0.268717,-0.155029 0.449584,-0.372069 0.542601,-0.651121 l 0.04134,-0.180867 c 0.04134,-0.268717 -0.02067,-0.516763 -0.180867,-0.738971 -0.160196,-0.222208 -0.377237,-0.356566 -0.645953,-0.397907 -0.346231,-0.05684 -0.640786,0.04651 -0.883665,0.30489 -0.248046,0.06718 -0.537433,0.118856 -0.873329,0.144694 -0.335895,0.02584 -0.620115,0.04651 -0.857826,0.05168 -1.204057,0.04134 -1.968865,-0.263549 -2.284091,-0.919838 -0.320392,-0.651121 -0.149861,-1.441767 0.511595,-2.366773 0.527098,-0.73897 1.167884,-1.24023 1.927525,-1.493444 0.754474,-0.253214 1.570959,-0.273884 2.444288,-0.05684 z"
         style="font-family:'Parenda Pop Comic';-inkscape-font-specification:'Parenda Pop Comic, Normal';text-align:center;text-anchor:middle"
         id="path19839" />
    </g>
  </g>
</svg>
