<?xml version="1.0" encoding="UTF-8" standalone="no"?>
<svg
   xmlns:dc="http://purl.org/dc/elements/1.1/"
   xmlns:cc="http://creativecommons.org/ns#"
   xmlns:rdf="http://www.w3.org/1999/02/22-rdf-syntax-ns#"
   xmlns:svg="http://www.w3.org/2000/svg"
   xmlns="http://www.w3.org/2000/svg"
   xmlns:sodipodi="http://sodipodi.sourceforge.net/DTD/sodipodi-0.dtd"
   xmlns:inkscape="http://www.inkscape.org/namespaces/inkscape"
   width="51.417133mm"
   height="119.44077mm"
   viewBox="0 0 51.417133 119.44077"
   version="1.1"
   id="svg8"
   inkscape:version="1.0.2 (e86c870879, 2021-01-15, custom)"
   sodipodi:docname="drawer.svg">
  <defs
     id="defs2" />
  <sodipodi:namedview
     id="base"
     pagecolor="#ffffff"
     bordercolor="#666666"
     borderopacity="1.0"
     inkscape:pageopacity="0.0"
     inkscape:pageshadow="2"
     inkscape:zoom="0.175"
     inkscape:cx="-1906.9079"
     inkscape:cy="-1012.6682"
     inkscape:document-units="mm"
     inkscape:current-layer="layer1"
     inkscape:document-rotation="0"
     showgrid="false"
     fit-margin-top="0"
     fit-margin-left="0"
     fit-margin-right="0"
     fit-margin-bottom="0"
     inkscape:window-width="1920"
     inkscape:window-height="1017"
     inkscape:window-x="-8"
     inkscape:window-y="-8"
     inkscape:window-maximized="1" />
  <metadata
     id="metadata5">
    <rdf:RDF>
      <cc:Work
         rdf:about="">
        <dc:format>image/svg+xml</dc:format>
        <dc:type
           rdf:resource="http://purl.org/dc/dcmitype/StillImage" />
        <dc:title></dc:title>
      </cc:Work>
    </rdf:RDF>
  </metadata>
  <g
     inkscape:label="Layer 1"
     inkscape:groupmode="layer"
     id="layer1"
     transform="translate(-67.267612,-68.03564)">
    <path
       id="path835-5-3"
       style="fill:#4d4d4d;stroke:none;stroke-width:0.999999px;stroke-linecap:butt;stroke-linejoin:miter;stroke-opacity:1"
       d="m 254.28711,257.14258 v 225.71484 225.71485 l 179.97266,-63.51954 a 32.324881,32.324881 0 0 1 0,-0.002 32.324881,32.324881 0 0 1 0.0156,-0.0703 19.192897,19.192897 0 0 0 1.22266,-0.36719 l 0.0273,-0.008 0.4375,-0.1543 a 19.192897,19.192897 0 0 0 0.0469,-0.0176 19.192897,19.192897 0 0 0 12.55859,-18.00976 19.192897,19.192897 0 0 0 -0.0449,-1.29688 32.324881,32.324881 0 0 1 0.0488,-0.0312 V 482.85742 339.81641 a 32.324881,32.324881 0 0 1 -0.0117,-0.008 19.192897,19.192897 0 0 0 0.008,-0.51757 19.192897,19.192897 0 0 0 -12.57227,-18.01563 19.192897,19.192897 0 0 0 -0.002,0 l -0.52344,-0.18359 a 19.192897,19.192897 0 0 0 -0.54882,-0.17383 32.324881,32.324881 0 0 1 -0.006,-0.0215 l 0.55468,0.19532 z"
       transform="scale(0.26458333)" />
    <path
       style="opacity:0.997;fill:#000000;stroke-width:17.565"
       id="path858"
       cx="142.11905"
       cy="150.6235"
       r="5.1026788"
       d="" />
    <path
       style="opacity:0.997;fill:#000000;stroke-width:17.565"
       id="path858-0"
       cx="142.11905"
       cy="150.6235"
       r="5.1026788"
       d="" />
    <path
       id="path835-5-3-1"
       style="opacity:0.9955;fill:#808080;stroke:none;stroke-width:0.264583px;stroke-linecap:butt;stroke-linejoin:miter;stroke-opacity:1"
       d="m 67.267612,76.449273 v 51.314967 51.31498 l 40.915748,-14.4408 a 7.3488759,7.3488759 0 0 1 0,-4.6e-4 7.3488759,7.3488759 0 0 1 0.003,-0.016 4.3633948,4.3633948 0 0 0 0.27797,-0.0834 l 0.006,-0.002 0.0995,-0.0351 a 4.3633948,4.3633948 0 0 0 0.0107,-0.004 4.3633948,4.3633948 0 0 0 2.85513,-4.09441 4.3633948,4.3633948 0 0 0 -0.0102,-0.29485 7.3488759,7.3488759 0 0 1 0.0111,-0.007 V 127.7641 95.244554 a 7.3488759,7.3488759 0 0 1 -0.003,-0.0018 4.3633948,4.3633948 0 0 0 0.002,-0.117667 4.3633948,4.3633948 0 0 0 -2.85823,-4.09575 4.3633948,4.3633948 0 0 0 -4.6e-4,0 l -0.11901,-0.04173 a 4.3633948,4.3633948 0 0 0 -0.12476,-0.03952 7.3488759,7.3488759 0 0 1 -0.002,-0.0049 l 0.12611,0.04441 z" />
    <rect
       style="opacity:0.9955;fill:#666666;stroke:none;stroke-width:17.565"
       id="rect989"
       width="8.8198948"
       height="71.619019"
       x="75.320435"
       y="91.954735"
       ry="5.7374349" />
    <rect
       style="opacity:0.9955;fill:#666666;stroke:none;stroke-width:17.565"
       id="rect989-0"
       width="8.8198948"
       height="71.619019"
       x="94.563843"
       y="91.954735"
       ry="5.7374349" />
  </g>
</svg>
