<?xml version="1.0" encoding="UTF-8" standalone="no"?>
<!-- Created with Inkscape (http://www.inkscape.org/) -->

<svg
   width="41.025082mm"
   height="41.025082mm"
   viewBox="0 0 500.025082 500.025082"
   version="1.1"
   id="svg5"
   inkscape:version="1.1.1 (3bf5ae0d25, 2021-09-20, custom)"
   sodipodi:docname="graptest.svg"
   xmlns:inkscape="http://www.inkscape.org/namespaces/inkscape"
   xmlns:sodipodi="http://sodipodi.sourceforge.net/DTD/sodipodi-0.dtd"
   xmlns="http://www.w3.org/2000/svg"
   xmlns:svg="http://www.w3.org/2000/svg">
  <sodipodi:namedview
     id="namedview7"
     pagecolor="#ffffff"
     bordercolor="#666666"
     borderopacity="1.0"
     inkscape:pageshadow="2"
     inkscape:pageopacity="0.0"
     inkscape:pagecheckerboard="0"
     inkscape:document-units="mm"
     showgrid="false"
     inkscape:zoom="0.44496752"
     inkscape:cx="102.25465"
     inkscape:cy="-23.597228"
     inkscape:window-width="1920"
     inkscape:window-height="1034"
     inkscape:window-x="0"
     inkscape:window-y="22"
     inkscape:window-maximized="1"
     inkscape:current-layer="layer1"
     inkscape:snap-object-midpoints="true" />
  <defs
     id="defs2" />
   <path
       style="fill:none;stroke:#000000;stroke-width:1.865;stroke-linecap:butt;stroke-linejoin:miter;stroke-opacity:1;stroke-miterlimit:4;stroke-dasharray:none"
       d="M 21,21 50,50"
       id="path1129" />
       <!--
       d="M {{c[i].p1}} {{c[j].p2}}"
       id="c_{{i}}_{{j}}"
       -->
    <g
       inkscape:label="Layer 1"
       id="layer1-4">  
       <circle
       style="fill:#ff00ff;stroke:none;stroke-width:1.865;stroke-linecap:round;stroke-miterlimit:4;stroke-dasharray:none;stroke-opacity:0.97098"
       id="path1331"
       cx="21"
       cy="21"
       r="20" />
      <path
         id="buycoin_foreground"
         style="color:#000000;fill:#008000;fill-opacity:0.97098;stroke-width:1;stroke-linecap:round;-inkscape-stroke:none"
         d="m 85.668931,3.087655 c -11.3098,0 -20.513477,9.202126 -20.513477,20.511925 0,11.3098 9.203677,20.513477 20.513477,20.513477 11.3098,0 20.511409,-9.203677 20.511409,-20.513477 0,-11.309799 -9.201609,-20.511925 -20.511409,-20.511925 z m 0,3.1992882 c 9.580394,0 17.312639,7.7322438 17.312639,17.3126368 0,9.580396 -7.732245,17.31264 -17.312639,17.31264 -9.580394,0 -17.312638,-7.732244 -17.312638,-17.31264 0,-9.580393 7.732244,-17.3126368 17.312638,-17.3126368 z M 74.645315,16.672873 c -0.273884,0 -0.511599,0.09819 -0.7028,0.294556 -0.191204,0.196368 -0.289388,0.428913 -0.289388,0.702799 0,1.638136 0.0155,3.276293 0.04651,4.914427 0.02584,1.638138 0.04134,3.276293 0.04651,4.914429 0,0.279053 0.09819,0.516768 0.289388,0.707966 0.191201,0.191204 0.428916,0.289388 0.7028,0.289391 0.165364,0 0.315227,-0.03617 0.449585,-0.108522 0.397907,0.227375 0.842327,0.320392 1.343586,0.273887 0.496094,-0.04134 0.99219,-0.165368 1.483114,-0.372073 0.490924,-0.201534 0.956016,-0.465088 1.390097,-0.780312 0.43408,-0.315227 0.785482,-0.635622 1.04903,-0.956017 0.511596,-0.620111 0.83716,-1.364257 0.976686,-2.227251 0.139525,-0.862995 0.08785,-1.669151 -0.144695,-2.408124 -0.232543,-0.738968 -0.656291,-1.328087 -1.266071,-1.762165 -0.614948,-0.428913 -1.415939,-0.5271 -2.402954,-0.28422 -0.713134,0.180866 -1.364261,0.542604 -1.948201,1.085204 -0.01034,-0.54777 -0.0155,-1.095542 -0.02067,-1.643311 -0.0052,-0.547767 -0.0052,-1.095542 -0.0052,-1.643309 0,-0.273886 -0.09819,-0.506431 -0.289388,-0.702799 -0.196372,-0.196371 -0.434084,-0.294556 -0.707967,-0.294556 z m 13.951602,2.70061 c -0.176402,-0.0021 -0.347136,0.04405 -0.510563,0.136425 -0.366749,0.222115 -0.526915,0.542859 -0.485758,0.961181 -0.0052,0.67007 -0.01038,1.340157 -0.02584,2.015381 -0.0155,0.676961 -0.03101,1.348759 -0.04651,2.020549 -0.273884,0.294555 -0.521934,0.583943 -0.733806,0.868164 -0.211873,0.284218 -0.449586,0.558107 -0.702799,0.821656 -0.242879,0.248047 -0.43925,0.403077 -0.594279,0.465087 -0.160196,0.06201 -0.346233,-0.06201 -0.563273,-0.37207 -0.170532,-0.23771 -0.294557,-0.558107 -0.366903,-0.961181 -0.07235,-0.403074 -0.113688,-0.826826 -0.118856,-1.271241 -0.01034,-0.444416 0.0052,-0.878501 0.04651,-1.302245 0.03617,-0.423746 0.08785,-0.780317 0.144694,-1.064535 0.03101,-0.165365 0.05168,-0.299725 0.06718,-0.408244 0.0155,-0.108519 0.02067,-0.248047 0.02067,-0.428914 0,-0.273886 -0.09819,-0.511601 -0.289388,-0.707966 -0.19637,-0.191204 -0.434083,-0.289388 -0.707967,-0.289391 -0.273884,0 -0.511598,0.09819 -0.702799,0.289391 -0.191203,0.196365 -0.289388,0.43408 -0.289388,0.707966 v 0.180867 l 0.0155,-0.05168 c -0.118856,0.558104 -0.211873,1.209231 -0.273885,1.958536 -0.06201,0.749305 -0.04134,1.493451 0.05684,2.222087 0.09819,0.733803 0.299725,1.405599 0.609782,2.010214 0.30489,0.609778 0.775149,1.049031 1.400432,1.317747 0.599445,0.258381 1.136882,0.279053 1.612304,0.06201 0.475421,-0.21704 0.909506,-0.5271 1.302246,-0.930177 -0.0052,0.103354 -0.0052,0.258384 -0.0052,0.470257 0,0.273884 0.09819,0.506428 0.289388,0.697632 0.191202,0.196369 0.428915,0.294556 0.702799,0.294556 0.273885,0 0.511597,-0.09819 0.707967,-0.294556 0.191202,-0.191204 0.289388,-0.423748 0.289388,-0.697632 0.0052,-1.007687 0.02584,-2.015384 0.05168,-3.028241 0.02584,-1.012851 0.04651,-2.025719 0.06718,-3.033405 0.01034,-0.506426 0.02067,-0.873332 0.03617,-1.105877 0.0155,-0.232542 -0.03617,-0.583946 -0.149862,-1.059365 -0.139526,-0.237712 -0.346233,-0.392742 -0.609782,-0.45992 -0.08236,-0.02099 -0.16373,-0.03211 -0.243913,-0.03307 z m 9.126575,1.946651 c -0.06443,0.0019 -0.129967,0.01008 -0.195854,0.02429 -0.268717,0.06201 -0.475424,0.206709 -0.620117,0.439251 -0.279052,0.454752 -0.558107,0.919842 -0.831991,1.390097 -0.279052,0.475419 -0.558106,0.956013 -0.837158,1.441773 -0.52193,-0.537435 -1.10071,-1.095542 -1.725993,-1.669151 -0.625282,-0.573606 -1.131715,-1.007689 -1.519287,-1.302245 -0.242879,-0.124023 -0.496095,-0.144692 -0.754476,-0.06718 -0.258381,0.08268 -0.454752,0.24288 -0.583943,0.485759 -0.124023,0.242877 -0.144695,0.496094 -0.06201,0.759643 0.07751,0.263549 0.237712,0.459922 0.480591,0.583943 0.0052,0.0052 0.144695,0.144695 0.423746,0.408244 0.279053,0.268719 0.59428,0.568442 0.945679,0.899171 0.346231,0.330729 0.68213,0.645956 0.997355,0.940512 0.315225,0.299722 0.506429,0.485756 0.578776,0.552936 0.08785,0.08785 0.15503,0.165365 0.201539,0.227378 -0.542601,0.992185 -1.085207,1.994712 -1.617473,3.002399 -0.170531,0.315227 -0.33073,0.625287 -0.485758,0.930177 -0.160197,0.30489 -0.304891,0.620117 -0.43925,0.956014 -0.09302,0.258381 -0.07751,0.511595 0.04651,0.754475 0.118855,0.248047 0.31006,0.418581 0.568441,0.511596 0.258381,0.08785 0.511597,0.07235 0.759643,-0.04651 0.248046,-0.118853 0.41858,-0.31006 0.506429,-0.568439 0.113688,-0.273886 0.24288,-0.542604 0.382406,-0.81132 0.139526,-0.268717 0.279053,-0.532268 0.418579,-0.79065 0.645953,-1.224727 1.333254,-2.490808 2.06189,-3.798218 0.723466,-1.307409 1.446942,-2.547651 2.165242,-3.72587 0.144694,-0.232542 0.186035,-0.480592 0.129191,-0.749308 -0.06201,-0.268716 -0.206707,-0.475424 -0.43925,-0.625284 -0.174407,-0.108522 -0.360153,-0.159052 -0.553454,-0.15348 z m -19.517671,0.468704 c 0.444415,0.0052 0.785481,0.191207 1.018026,0.54777 0.232543,0.361735 0.341064,0.826825 0.315225,1.390097 -0.02584,0.568438 -0.232545,1.085207 -0.620117,1.555461 -0.248045,0.299723 -0.676963,0.635622 -1.281576,1.00769 -0.604612,0.37207 -1.095542,0.485759 -1.472777,0.346231 L 75.957897,26.30019 c -0.279054,-0.568438 -0.320395,-1.188561 -0.129194,-1.855181 0.191204,-0.666626 0.485762,-1.229903 0.873334,-1.684653 0.552935,-0.651121 1.054198,-0.976685 1.503784,-0.971518 z",
         transform="translate(-65,-3)"/>
    </g>
</svg>
