<?xml version="1.0" encoding="UTF-8" standalone="no"?>
<!-- Created with Inkscape (http://www.inkscape.org/) -->

<svg
   width="210mm"
   height="297mm"
   viewBox="0 0 210 297"
   version="1.1"
   id="svg5"
   inkscape:version="1.1.1 (3bf5ae0d25, 2021-09-20, custom)"
   sodipodi:docname="maryann.svg"
   xmlns:inkscape="http://www.inkscape.org/namespaces/inkscape"
   xmlns:sodipodi="http://sodipodi.sourceforge.net/DTD/sodipodi-0.dtd"
   xmlns="http://www.w3.org/2000/svg"
   xmlns:svg="http://www.w3.org/2000/svg">
  <sodipodi:namedview
     id="namedview7"
     pagecolor="#ffffff"
     bordercolor="#666666"
     borderopacity="1.0"
     inkscape:pageshadow="2"
     inkscape:pageopacity="0.0"
     inkscape:pagecheckerboard="0"
     inkscape:document-units="mm"
     showgrid="false"
     inkscape:zoom="0.1314492"
     inkscape:cx="11293.336"
     inkscape:cy="7580.8751"
     inkscape:window-width="1920"
     inkscape:window-height="1034"
     inkscape:window-x="0"
     inkscape:window-y="22"
     inkscape:window-maximized="1"
     inkscape:current-layer="layer1" />
  <defs
     id="defs2">
    <pattern
       inkscape:collect="always"
       patternUnits="userSpaceOnUse"
       width="3"
       height="1"
       patternTransform="translate(0,0) scale(10,10)"
       id="Strips1_2"
       inkscape:stockid="Stripes 1:2">
      <rect
         style="fill:black;stroke:none"
         x="0"
         y="-0.5"
         width="1"
         height="2"
         id="rect17323" />
    </pattern>
  </defs>
  <g
     inkscape:label="Layer 1"
     inkscape:groupmode="layer"
     id="layer1">
    <path
       style="fill:#e6e6e6;stroke:#000000;stroke-width:10;stroke-linecap:butt;stroke-linejoin:miter;stroke-miterlimit:4;stroke-dasharray:none;stroke-opacity:1"
       d="m 1803.238,1783.8029 144.8861,-221.3321 1053.3432,-69.9829 135.0858,-183.7585 1690.5907,-86.4529 116.6474,578.6911 z"
       id="path1675" />
    <path
       style="fill:#784421;stroke:#000000;stroke-width:10;stroke-linecap:butt;stroke-linejoin:miter;stroke-miterlimit:4;stroke-dasharray:none;stroke-opacity:1"
       d="m 2064.9535,1487.7163 2.2048,68.7163 704.2393,-43.7086 -6.6173,-89.5778 z"
       id="path4517" />
    <path
       style="fill:#6c5353;stroke:#000000;stroke-width:10;stroke-linecap:butt;stroke-linejoin:miter;stroke-miterlimit:4;stroke-dasharray:none;stroke-opacity:1"
       d="m 2040.3389,1656.1989 c 8.5036,-33.9886 17.9071,-55.9587 101.9619,-62.5034 l 546.2914,-42.5283 c 28.4108,-2.2114 41.7345,9.4342 36.8078,41.5082 l -12.4821,81.2768 c -2.9517,19.2043 -19.9756,17.9282 -36.6454,17.4513 l -623.1964,-17.8567 c -20.7211,-0.6318 -14.6576,-9.6759 -12.7371,-17.35 z"
       id="path1710"
       sodipodi:nodetypes="ssssssss" />
    <path
       style="fill:#00ff00;stroke:#000000;stroke-width:10;stroke-linecap:butt;stroke-linejoin:miter;stroke-miterlimit:4;stroke-dasharray:none;stroke-opacity:1"
       d="m 7693.9942,471.24528 21.576,-141.53442 c 5.7371,-75.24513 146.2766,-61.45676 155.7244,-9.95973 l 20.6368,145.35625 z"
       id="path8597"
       sodipodi:nodetypes="ccccc" />
    <ellipse
       style="fill:#000000;stroke:#000000;stroke-width:10.00000001;stroke-linecap:round;stroke-miterlimit:4;stroke-dasharray:none;stroke-opacity:0.97098"
       id="path8906"
       cx="7839.584"
       cy="-833.18579"
       rx="77.834831"
       ry="77.462448"
       transform="matrix(0.99170116,0.12856442,-0.12865758,0.99168908,0,0)" />
    <path
       style="fill:#6c5353;stroke:#000000;stroke-width:10;stroke-linecap:butt;stroke-linejoin:miter;stroke-miterlimit:4;stroke-dasharray:none;stroke-opacity:1"
       d="m 3165.3389,1681.4887 c -42.6862,0.5215 -37.2923,-15.6182 -26.5822,-33.5043 l 126.9783,-212.0522 c 18.1511,-30.3129 43.8001,-40.9364 81.7159,-42.2745 l 1134.1237,-40.0278 c 23.9261,-0.8424 45.0223,5.6543 52.5188,23.1241 l 110.3866,257.063 c 7.983,18.5895 8.771,26.8124 -33.2411,27.4009 z"
       id="path2296"
       sodipodi:nodetypes="sssssssss" />
    <path
       style="fill:#b3b3b3;stroke:#000000;stroke-width:10;stroke-linecap:butt;stroke-linejoin:miter;stroke-miterlimit:4;stroke-dasharray:none;stroke-opacity:1"
       d="M 2344.1363,1723.1589 2609.855,619.24856 c 30.7107,-127.58509 102.7976,-111.31306 168.027,-116.39321 l 13.3829,-114.6558 32.6695,4.23221 -132.7989,1338.64014 -34.2643,-1.8212 113.5771,-1178.16063 c -78.8211,-13.01022 -113.4447,17.49556 -127.7737,77.74985 L 2379.645,1734.8961 Z"
       id="path4197"
       sodipodi:nodetypes="csccccccscc" />
    <path
       id="rect12984"
       style="fill:#808080;stroke:#000000;stroke-width:10.00000001;stroke-linecap:round;stroke-opacity:0.97098;stroke-miterlimit:4;stroke-dasharray:none"
       transform="matrix(0.99170116,0.12856442,-0.12865758,0.99168908,0,0)"
       d="m 5974.0535,2006.0089 1059.8611,10.0327 v 26.054 l -1059.8611,-10.0327 z"
       sodipodi:nodetypes="ccccc" />
    <path
       style="fill:#0000ff;stroke:#000000;stroke-width:10;stroke-linecap:butt;stroke-linejoin:miter;stroke-miterlimit:4;stroke-dasharray:none;stroke-opacity:1"
       d="m 408.28038,1646.7094 7520.84342,71.9981 -477.5922,678.1678 C 4910.6495,3205.8647 3536.8988,3086.2455 2457.9251,3015.2361 1066.948,2923.6939 785.45416,2192.3101 408.28038,1646.7094 Z"
       id="path869"
       sodipodi:nodetypes="cccsc" />
    <path
       style="fill:#ff0000;stroke:#000000;stroke-width:10;stroke-linecap:butt;stroke-linejoin:miter;stroke-miterlimit:4;stroke-dasharray:none;stroke-opacity:1"
       d="m 7870.0631,1812.9619 -58.8936,65.0492 -7279.00096,-45.5291 -33.30568,-52.9033 c 2456.99114,14.3317 4914.14744,22.844 7371.20024,33.3832 z"
       id="path1393"
       sodipodi:nodetypes="ccccc" />
    <path
       style="fill:#784421;stroke:#000000;stroke-width:10;stroke-linecap:butt;stroke-linejoin:miter;stroke-miterlimit:4;stroke-dasharray:none;stroke-opacity:1"
       d="m 3415.4278,1117.5018 966.3966,-51.028 4.4426,178.3625 -1032.4054,52.9644 z"
       id="path2806"
       sodipodi:nodetypes="ccccc" />
    <path
       style="fill:#000080;stroke:#000000;stroke-width:10;stroke-linecap:butt;stroke-linejoin:miter;stroke-miterlimit:4;stroke-dasharray:none;stroke-opacity:1"
       d="m 4143.8493,1256.6284 34.8756,-193.8986 78.1207,-46.5567 160.6308,-254.5857 c 14.3147,-24.84335 32.9946,-26.21631 51.8503,-26.64385 326.307,1.84232 634.591,1.85335 924.0735,-66.85372 34.7881,-8.25481 52.5546,2.20034 56.453,3.89523 l 78.1792,34.03076 c -38.6518,-3.77991 -78.0536,-3.78993 -107.5568,18.91886 L 5309.99,809.97556 c -59.9703,46.15964 -73.2655,115.18443 -60.4532,175.60198 l 146.512,708.43886 -628.4428,-6.939 -176.9193,-447.2472 z"
       id="path3088"
       sodipodi:nodetypes="cccccsscssscccc" />
    <path
       id="path4058"
       style="fill:#000080;stroke:#000000;stroke-width:10;stroke-linecap:butt;stroke-linejoin:miter;stroke-miterlimit:4;stroke-dasharray:none;stroke-opacity:1"
       d="m 6910.1864,644.2277 -118.792,13.00501 -1263.3603,48.79404 c -38.6521,-3.7799 -78.0444,-3.7799 -107.5476,18.92408 l -110.4987,85.03356 c -59.9712,46.15964 -73.2673,115.18021 -60.4551,175.59777 l 146.5156,708.43884 1656.8326,10.5854 z"
       sodipodi:nodetypes="ccccccccc" />
    <path
       style="fill:#784421;stroke:#000000;stroke-width:10;stroke-linecap:butt;stroke-linejoin:miter;stroke-miterlimit:4;stroke-dasharray:none;stroke-opacity:1"
       d="m 2975.8267,633.26318 c 9.7932,-60.31436 46.0605,-74.37321 90.0971,-68.92891 59.4998,7.3492 80.2254,42.96422 73.8022,87.52565 l -16.827,116.74693 76.2696,530.16345 -62.6154,9.9597 -135.0858,183.7584 -166.8131,10.2444 z"
       id="path4632"
       sodipodi:nodetypes="ssscccccs" />
    <path
       style="fill:#b3b3b3;stroke:#000000;stroke-width:10;stroke-linecap:butt;stroke-linejoin:miter;stroke-miterlimit:4;stroke-dasharray:none;stroke-opacity:1"
       d="M 3122.237,738.22642 6837.9972,506.70997 6872.323,613.76314 3126.3689,854.46378 Z"
       id="path4914"
       sodipodi:nodetypes="ccccc" />
    <path
       style="fill:#999999;stroke:#000000;stroke-width:10;stroke-linecap:butt;stroke-linejoin:miter;stroke-miterlimit:4;stroke-dasharray:none;stroke-opacity:1"
       d="m 408.28028,1646.7094 -145.26265,-19.2905 c -72.79258,32.8409 -123.13063,71.9568 23.12066,166.0114 -160.96646,5.7596 -154.15365,-76.0284 -162.23854,-125.074 l 9.17645,-127.0513 278.19461,34.6877 c 0,0 221.70429,0.7321 228.61982,1.411 10.24409,1.0531 25.92016,3.3908 27.4761,19.0148 1.30263,13.0713 -10.56779,18.2261 -24.03901,20.0549 -13.47082,1.8323 -235.04764,30.232 -235.04764,30.232 z"
       id="path5082"
       sodipodi:nodetypes="ccccccsssc" />
    <path
       id="path6044"
       style="fill:#b3b3b3;stroke:#000000;stroke-width:10;stroke-linecap:butt;stroke-linejoin:miter;stroke-miterlimit:4;stroke-dasharray:none;stroke-opacity:1"
       d="m 786.87373,1129.5498 c -1.92641,-0.3109 -3.89086,-0.4212 -5.89536,-0.6318 L 65.051076,1070.6409 c -13.72163,-1.1162 -26.912198,0.4212 -33.096819,16.6878 -4.324399,11.3678 5.58297,24.475 24.459937,26.8292 l 50.020846,6.2019 301.84824,526.3859 46.72944,7.6019 -159.4793,-259.829 693.28833,46.8704 174.29835,241.485 48.2109,-2.7168 -319.16262,-471.6074 c -23.47911,-34.6932 -45.60533,-71.1507 -105.29435,-78.9567 z m -13.14361,38.7338 c 33.06368,4.2011 50.11456,17.189 75.51037,56.7505 l 112.34395,175.0281 -677.28725,-42.3041 -132.49381,-235.4478 615.11163,45.2552 c 2.35394,0.2107 4.61076,0.4213 6.81451,0.7322 z"
       sodipodi:nodetypes="scssccccccccssscccccs" />
    <path
       style="fill:#808080;stroke:#000000;stroke-width:10;stroke-linecap:butt;stroke-linejoin:miter;stroke-miterlimit:4;stroke-dasharray:none;stroke-opacity:1"
       d="m 6882.7363,1712.4261 256.194,-522.8946 c 35.4693,-72.3919 105.4126,-123.3947 169.3945,-120.9962 l 587.4954,36.0595 c 10.8416,0.6318 13.0824,8.9288 11.4553,18.1535 -1.6821,9.4232 -13.1514,11.0856 -17.7271,10.8866 L 7379.022,1111.549 c -72.4204,-3.1371 -162.4067,35.0751 -188.3231,85.1303 l -266.997,515.6983 z"
       id="path13390"
       sodipodi:nodetypes="cssssssscc" />
    <path
       style="fill:#808080;stroke:#000000;stroke-width:10;stroke-linecap:butt;stroke-linejoin:miter;stroke-miterlimit:4;stroke-dasharray:none;stroke-opacity:1"
       d="m 7873.1579,63.117132 -98.1225,1667.799268 22.5261,1.9476 111.271,-1666.060937 z"
       id="path8258"
       sodipodi:nodetypes="ccccc" />
    <path
       style="fill:#000055;stroke:#000000;stroke-width:10;stroke-linecap:butt;stroke-linejoin:miter;stroke-miterlimit:4;stroke-dasharray:none;stroke-opacity:1"
       d="m 2464.7401,3013.7506 576.0532,649.152 2960.4161,17.8217 376.3533,-641.764 -64.6909,-91.9856 69.539,4.8751 -28.4047,-151.3735 -23.1526,4.4959 c -47.1888,-84.125 193.9939,-137.1092 257.6566,-116.8353 l 65.6836,-55.6545 C 5629.1283,2877.1615 4471.5471,3187.0152 2464.7402,3013.758 Z"
       id="path9101"
       sodipodi:nodetypes="ccccccccccc" />
    <path
       style="fill:#000055;stroke:#000000;stroke-width:10;stroke-linecap:butt;stroke-linejoin:miter;stroke-miterlimit:4;stroke-dasharray:none;stroke-opacity:1"
       d="m 6047.7388,3657.216 347.1604,-585.78 c 156.6729,111.9542 462.0959,-117.5491 213.6648,-364.6448 l 59.3823,-53.1729 c 35.2201,118.0282 473.3489,100.0042 434.0319,232.8084 l -344.8463,583.4826 c -41.3974,70.045 -80.9276,138.0653 -262.6625,152.3043 z"
       id="path9820"
       sodipodi:nodetypes="cccccssc" />
    <path
       id="path10759"
       style="fill:#aa8800;stroke:#000000;stroke-width:10;stroke-linecap:butt;stroke-linejoin:miter;stroke-miterlimit:4;stroke-dasharray:none;stroke-opacity:1"
       d="m 6533.618,2713.0757 c -5.0844,-0.8424 -10.4196,3.9163 -15.6496,16.7206 -9.9425,24.3506 -15.6515,49.4656 -15.7743,98.3985 -0.011,12.1058 -1.8624,12.6176 -10.3766,17.386 l -18.4914,3.5161 -7.0878,37.7084 -2.7655,38.2673 24.466,9.7281 c -1.3027,41.0869 -2.3009,81.0505 6.3859,118.2956 10.0288,42.921 29.9261,-5.5069 46.6694,-49.711 9.6581,-25.4972 9.0092,-53.5434 24.5754,-53.1022 l 7.7487,-43.337 -3.6666,-1.706 0.8711,-4.9171 0.4105,-4.9694 3.9809,-0.7321 3.5715,-43.8801 -9.1464,-2.5273 c -1.9685,-13.2387 -6.8906,-54.4867 -9.569,-71.7253 -4.9811,-32.0492 -14.9597,-61.4757 -26.1479,-63.4193 z" />
    <path
       style="fill:#0000ff;stroke:#000000;stroke-width:10;stroke-linecap:butt;stroke-linejoin:miter;stroke-miterlimit:4;stroke-dasharray:none;stroke-opacity:1"
       d="m 3830.1702,1248.8457 17.9551,281.5643 1401.7595,-0.4212 0.9913,143.2432 1798.5655,-12.2659 15.6085,-115.9245 573.584,20.9362 28.7079,92.1909 261.7838,60.5871 -39.5754,-585.0715 -531.5326,-24.4086 -167.3169,87.452 z"
       id="path13242"
       sodipodi:nodetypes="ccccccccccccc" />
    <path
       style="fill:#ffcc00;stroke:#000000;stroke-width:10;stroke-linecap:butt;stroke-linejoin:miter;stroke-miterlimit:4;stroke-dasharray:none;stroke-opacity:1"
       d="m 5075.0713,2478.6749 31.5417,-0.6761 28.5214,-39.99 4.8087,-16.2029 9.4858,0.8318 -0.2333,-18.8337 18.026,0.8078 2.1622,15.7414 6.7377,2.4895 10.9952,1.4006 0.6886,-11.0045 13.3265,-0.6043 2.4963,-11.0692 10.9786,-0.4789 1.3517,9.5431 35.7364,1.9507 6.447,-8.4341 155.2052,-3.7824 29.5614,-2.364 12.5613,10.5186 1.5874,15.3847 18.8992,-2.1605 3.4678,48.2596 6.1734,-0.3591 3.8269,14.0645 9.2496,0.5359 4.0687,23.9918 23.737,28.6797 3.3773,20.446 9.2684,9.6813 21.0173,20.0821 -17.4585,23.7998 -17.0718,9.1786 -0.1764,11.651 9.1274,1.8669 1.326,15.2214 24.4474,0.4788 4.9093,8.0882 4.305,-10.0087 4.6418,-23.0445 14.1323,-6.9888 11.3365,11.4158 -14.0577,17.219 15.2548,16.6217 21.6485,-1.293 18.2698,20.7715 9.0385,47.3356 -0.4268,20.9804 11.5939,-26.9434 13.0062,1.7055 2.1906,80.3392 -14.6995,1.7654 -10.0862,-21.9427 -2.1651,10.6988 -5.7884,0.5358 5.3881,12.542 -14.0426,7.2193 -45.8224,3.1183 -0.017,11.9142 -12.7853,1.7952 -0.5851,-6.1409 -50.6274,0.1197 3.7517,28.0578 -97.6395,3.6689 -12.0589,5.8949 -0.1536,7.038 -15.0606,-0.7422 0.4837,-72.9194 -19.6681,9.4306 -1.6596,51.6739 -23.34,21.5777 -116.3429,-0.8141 -22.378,-15.1011 -2.1958,-58.7495 -20.2295,-4.5725 -5.7011,-1.2627 -1.815,3.3098 -72.8817,-1.5619 0.4269,-3.926 -6.3218,-1.1612 1.1263,-17.7607 4.9754,-0.826 -0.2106,-12.8353 -7.8457,-1.4303 0.9454,-18.9103 h 4.9497 l -1.5953,-25.2319 -8.2466,-0.724 -0.4041,-20.7321 13.7693,0.5359 2.095,-86.6129 -14.2078,-3.7527 -5.8057,-20.3424 -5.1,-3.5133 -15.0983,0.6225 -8.6207,-58.5287 -6.6078,1.281 0.444,-10.5402 5.9828,0.9937 -1.2173,-20.467 h -3.8428 l -0.8082,-10.5114 6.647,-0.1197 z"
       id="path15196" />
    <path
       style="fill:url(#Strips1_2);stroke:#000000;stroke-width:10;stroke-linecap:butt;stroke-linejoin:miter;stroke-opacity:1;stroke-miterlimit:4;stroke-dasharray:none;fill-opacity:1.0"
       d="m 4767.6059,1687.0774 92.297,743.5509 H 6760.878 l 51.3011,-721.5425 z"
       id="path16097"
       sodipodi:nodetypes="ccccc" />
  </g>
</svg>
